%TF.GenerationSoftware,KiCad,Pcbnew,(6.0.0)*%
%TF.CreationDate,2022-07-26T05:52:08-04:00*%
%TF.ProjectId,TRS-80-M3-KEY,5452532d-3830-42d4-9d33-2d4b45592e6b,rev?*%
%TF.SameCoordinates,Original*%
%TF.FileFunction,Soldermask,Bot*%
%TF.FilePolarity,Negative*%
%FSLAX46Y46*%
G04 Gerber Fmt 4.6, Leading zero omitted, Abs format (unit mm)*
G04 Created by KiCad (PCBNEW (6.0.0)) date 2022-07-26 05:52:08*
%MOMM*%
%LPD*%
G01*
G04 APERTURE LIST*
%ADD10C,0.800000*%
%ADD11C,6.000000*%
%ADD12C,5.001260*%
%ADD13C,1.198880*%
%ADD14R,1.700000X1.700000*%
%ADD15O,1.700000X1.700000*%
%ADD16C,2.700000*%
%ADD17C,2.899999*%
%ADD18C,1.600000*%
%ADD19C,1.000000*%
%ADD20R,1.700000X1.200000*%
%ADD21O,1.700000X1.200000*%
%ADD22O,2.000000X1.200000*%
G04 APERTURE END LIST*
D10*
%TO.C,H3*%
X172375000Y-124777500D03*
X174625000Y-122527500D03*
D11*
X174625000Y-124777500D03*
D10*
X173034010Y-123186510D03*
X173034010Y-126368490D03*
X176215990Y-123186510D03*
X176215990Y-126368490D03*
X176875000Y-124777500D03*
X174625000Y-127027500D03*
%TD*%
D12*
%TO.C,J4*%
X175963580Y-101917500D03*
X175963580Y-76928980D03*
D13*
X174244600Y-85112860D03*
X174244600Y-87403940D03*
X174244600Y-89689940D03*
X174244600Y-91983560D03*
X174244600Y-94272100D03*
X176009300Y-83967320D03*
X176009300Y-86260940D03*
X176009300Y-88559640D03*
X176009300Y-90858340D03*
X176009300Y-93131640D03*
X177800600Y-85112860D03*
X177800600Y-87403940D03*
X177800600Y-89692480D03*
X177800600Y-91983560D03*
X177800600Y-94274640D03*
%TD*%
D14*
%TO.C,J6*%
X174942500Y-111755000D03*
D15*
X174942500Y-114295000D03*
%TD*%
D14*
%TO.C,J1*%
X96525000Y-82545000D03*
D15*
X93985000Y-82545000D03*
X96525000Y-80005000D03*
X93985000Y-80005000D03*
X96525000Y-77465000D03*
X93985000Y-77465000D03*
X96525000Y-74925000D03*
X93985000Y-74925000D03*
X96525000Y-72385000D03*
X93985000Y-72385000D03*
X96525000Y-69845000D03*
X93985000Y-69845000D03*
X96525000Y-67305000D03*
X93985000Y-67305000D03*
X96525000Y-64765000D03*
X93985000Y-64765000D03*
X96525000Y-62225000D03*
X93985000Y-62225000D03*
X96525000Y-59685000D03*
X93985000Y-59685000D03*
%TD*%
D16*
%TO.C,J3*%
X95135000Y-94917500D03*
D17*
X94335000Y-101917500D03*
D16*
X95135000Y-108917500D03*
D18*
X98135000Y-103217500D03*
X98135000Y-100617500D03*
X98135000Y-105317500D03*
X98135000Y-98517500D03*
X100635000Y-105317500D03*
X100635000Y-98517500D03*
D19*
X93035000Y-104417500D03*
X93035000Y-99417500D03*
X100635000Y-106917500D03*
X100635000Y-96917500D03*
%TD*%
D20*
%TO.C,RP1*%
X120624600Y-87604600D03*
D21*
X120624600Y-85064600D03*
X120624600Y-82524600D03*
X120624600Y-79984600D03*
X120624600Y-77444600D03*
X120624600Y-74904600D03*
X120624600Y-72364600D03*
X120624600Y-69824600D03*
X120624600Y-67284600D03*
%TD*%
D10*
%TO.C,H1*%
X97500000Y-48895000D03*
X96840990Y-50485990D03*
X95250000Y-46645000D03*
X93659010Y-50485990D03*
X93000000Y-48895000D03*
X93659010Y-47304010D03*
X96840990Y-47304010D03*
X95250000Y-51145000D03*
D11*
X95250000Y-48895000D03*
%TD*%
D14*
%TO.C,J2*%
X105410000Y-119767500D03*
D15*
X107950000Y-119767500D03*
X110490000Y-119767500D03*
X113030000Y-119767500D03*
X115570000Y-119767500D03*
X118110000Y-119767500D03*
%TD*%
D10*
%TO.C,H2*%
X96840990Y-126368490D03*
D11*
X95250000Y-124777500D03*
D10*
X95250000Y-127027500D03*
X96840990Y-123186510D03*
X95250000Y-122527500D03*
X97500000Y-124777500D03*
X93000000Y-124777500D03*
X93659010Y-126368490D03*
X93659010Y-123186510D03*
%TD*%
%TO.C,H4*%
X173034010Y-50485990D03*
X176215990Y-47304010D03*
X173034010Y-47304010D03*
X174625000Y-46645000D03*
D11*
X174625000Y-48895000D03*
D10*
X172375000Y-48895000D03*
X174625000Y-51145000D03*
X176875000Y-48895000D03*
X176215990Y-50485990D03*
%TD*%
D14*
%TO.C,J5*%
X163517500Y-77152500D03*
D15*
X160977500Y-77152500D03*
%TD*%
D22*
%TO.C,U1*%
X127000000Y-57150000D03*
X127000000Y-59690000D03*
X127000000Y-62230000D03*
X127000000Y-64770000D03*
X127000000Y-67310000D03*
X127000000Y-69850000D03*
X127000000Y-72390000D03*
X127000000Y-74930000D03*
X127000000Y-77470000D03*
X127000000Y-80010000D03*
X127000000Y-82550000D03*
X127000000Y-85090000D03*
X127000000Y-87630000D03*
X127000000Y-90170000D03*
X127000000Y-92710000D03*
X127000000Y-95250000D03*
X127000000Y-97790000D03*
X127000000Y-100330000D03*
X127000000Y-102870000D03*
X127000000Y-105410000D03*
X127000000Y-107950000D03*
X127000000Y-110490000D03*
X127000000Y-113030000D03*
X127000000Y-115570000D03*
X149900000Y-115570000D03*
X149900000Y-113030000D03*
X149900000Y-110490000D03*
X149900000Y-107950000D03*
X149900000Y-105410000D03*
X149900000Y-102870000D03*
X149900000Y-100330000D03*
X149900000Y-97790000D03*
X149900000Y-95250000D03*
X149900000Y-92710000D03*
X149900000Y-90170000D03*
X149900000Y-87630000D03*
X149900000Y-85090000D03*
X149900000Y-82550000D03*
X149900000Y-80010000D03*
X149900000Y-77470000D03*
X149900000Y-74930000D03*
X149900000Y-72390000D03*
X149900000Y-69850000D03*
X149900000Y-67310000D03*
X149900000Y-64770000D03*
X149900000Y-62230000D03*
X149900000Y-59690000D03*
X149900000Y-57150000D03*
%TD*%
M02*
