%TF.GenerationSoftware,KiCad,Pcbnew,(6.0.0)*%
%TF.CreationDate,2022-07-26T05:52:08-04:00*%
%TF.ProjectId,TRS-80-M3-KEY,5452532d-3830-42d4-9d33-2d4b45592e6b,rev?*%
%TF.SameCoordinates,Original*%
%TF.FileFunction,Legend,Top*%
%TF.FilePolarity,Positive*%
%FSLAX46Y46*%
G04 Gerber Fmt 4.6, Leading zero omitted, Abs format (unit mm)*
G04 Created by KiCad (PCBNEW (6.0.0)) date 2022-07-26 05:52:08*
%MOMM*%
%LPD*%
G01*
G04 APERTURE LIST*
%ADD10C,0.150000*%
%ADD11C,0.304800*%
%ADD12C,0.120000*%
%ADD13C,0.381000*%
G04 APERTURE END LIST*
D10*
%TO.C,C2*%
X110958333Y-54557142D02*
X110910714Y-54604761D01*
X110767857Y-54652380D01*
X110672619Y-54652380D01*
X110529761Y-54604761D01*
X110434523Y-54509523D01*
X110386904Y-54414285D01*
X110339285Y-54223809D01*
X110339285Y-54080952D01*
X110386904Y-53890476D01*
X110434523Y-53795238D01*
X110529761Y-53700000D01*
X110672619Y-53652380D01*
X110767857Y-53652380D01*
X110910714Y-53700000D01*
X110958333Y-53747619D01*
X111339285Y-53747619D02*
X111386904Y-53700000D01*
X111482142Y-53652380D01*
X111720238Y-53652380D01*
X111815476Y-53700000D01*
X111863095Y-53747619D01*
X111910714Y-53842857D01*
X111910714Y-53938095D01*
X111863095Y-54080952D01*
X111291666Y-54652380D01*
X111910714Y-54652380D01*
%TO.C,C7*%
X163980833Y-53932142D02*
X163933214Y-53979761D01*
X163790357Y-54027380D01*
X163695119Y-54027380D01*
X163552261Y-53979761D01*
X163457023Y-53884523D01*
X163409404Y-53789285D01*
X163361785Y-53598809D01*
X163361785Y-53455952D01*
X163409404Y-53265476D01*
X163457023Y-53170238D01*
X163552261Y-53075000D01*
X163695119Y-53027380D01*
X163790357Y-53027380D01*
X163933214Y-53075000D01*
X163980833Y-53122619D01*
X164314166Y-53027380D02*
X164980833Y-53027380D01*
X164552261Y-54027380D01*
%TO.C,H3*%
X173863095Y-120149880D02*
X173863095Y-119149880D01*
X173863095Y-119626071D02*
X174434523Y-119626071D01*
X174434523Y-120149880D02*
X174434523Y-119149880D01*
X174815476Y-119149880D02*
X175434523Y-119149880D01*
X175101190Y-119530833D01*
X175244047Y-119530833D01*
X175339285Y-119578452D01*
X175386904Y-119626071D01*
X175434523Y-119721309D01*
X175434523Y-119959404D01*
X175386904Y-120054642D01*
X175339285Y-120102261D01*
X175244047Y-120149880D01*
X174958333Y-120149880D01*
X174863095Y-120102261D01*
X174815476Y-120054642D01*
%TO.C,R5*%
X162440833Y-97862380D02*
X162107500Y-97386190D01*
X161869404Y-97862380D02*
X161869404Y-96862380D01*
X162250357Y-96862380D01*
X162345595Y-96910000D01*
X162393214Y-96957619D01*
X162440833Y-97052857D01*
X162440833Y-97195714D01*
X162393214Y-97290952D01*
X162345595Y-97338571D01*
X162250357Y-97386190D01*
X161869404Y-97386190D01*
X163345595Y-96862380D02*
X162869404Y-96862380D01*
X162821785Y-97338571D01*
X162869404Y-97290952D01*
X162964642Y-97243333D01*
X163202738Y-97243333D01*
X163297976Y-97290952D01*
X163345595Y-97338571D01*
X163393214Y-97433809D01*
X163393214Y-97671904D01*
X163345595Y-97767142D01*
X163297976Y-97814761D01*
X163202738Y-97862380D01*
X162964642Y-97862380D01*
X162869404Y-97814761D01*
X162821785Y-97767142D01*
D11*
%TO.C,J4*%
X169345428Y-94488000D02*
X170434000Y-94488000D01*
X170651714Y-94560571D01*
X170796857Y-94705714D01*
X170869428Y-94923428D01*
X170869428Y-95068571D01*
X169853428Y-93109142D02*
X170869428Y-93109142D01*
X169272857Y-93472000D02*
X170361428Y-93834857D01*
X170361428Y-92891428D01*
D10*
%TO.C,J6*%
X174609166Y-108877380D02*
X174609166Y-109591666D01*
X174561547Y-109734523D01*
X174466309Y-109829761D01*
X174323452Y-109877380D01*
X174228214Y-109877380D01*
X175513928Y-108877380D02*
X175323452Y-108877380D01*
X175228214Y-108925000D01*
X175180595Y-108972619D01*
X175085357Y-109115476D01*
X175037738Y-109305952D01*
X175037738Y-109686904D01*
X175085357Y-109782142D01*
X175132976Y-109829761D01*
X175228214Y-109877380D01*
X175418690Y-109877380D01*
X175513928Y-109829761D01*
X175561547Y-109782142D01*
X175609166Y-109686904D01*
X175609166Y-109448809D01*
X175561547Y-109353571D01*
X175513928Y-109305952D01*
X175418690Y-109258333D01*
X175228214Y-109258333D01*
X175132976Y-109305952D01*
X175085357Y-109353571D01*
X175037738Y-109448809D01*
%TO.C,U3*%
X112585595Y-98312380D02*
X112585595Y-99121904D01*
X112633214Y-99217142D01*
X112680833Y-99264761D01*
X112776071Y-99312380D01*
X112966547Y-99312380D01*
X113061785Y-99264761D01*
X113109404Y-99217142D01*
X113157023Y-99121904D01*
X113157023Y-98312380D01*
X113537976Y-98312380D02*
X114157023Y-98312380D01*
X113823690Y-98693333D01*
X113966547Y-98693333D01*
X114061785Y-98740952D01*
X114109404Y-98788571D01*
X114157023Y-98883809D01*
X114157023Y-99121904D01*
X114109404Y-99217142D01*
X114061785Y-99264761D01*
X113966547Y-99312380D01*
X113680833Y-99312380D01*
X113585595Y-99264761D01*
X113537976Y-99217142D01*
%TO.C,U5*%
X166048095Y-57499880D02*
X166048095Y-58309404D01*
X166095714Y-58404642D01*
X166143333Y-58452261D01*
X166238571Y-58499880D01*
X166429047Y-58499880D01*
X166524285Y-58452261D01*
X166571904Y-58404642D01*
X166619523Y-58309404D01*
X166619523Y-57499880D01*
X167571904Y-57499880D02*
X167095714Y-57499880D01*
X167048095Y-57976071D01*
X167095714Y-57928452D01*
X167190952Y-57880833D01*
X167429047Y-57880833D01*
X167524285Y-57928452D01*
X167571904Y-57976071D01*
X167619523Y-58071309D01*
X167619523Y-58309404D01*
X167571904Y-58404642D01*
X167524285Y-58452261D01*
X167429047Y-58499880D01*
X167190952Y-58499880D01*
X167095714Y-58452261D01*
X167048095Y-58404642D01*
%TO.C,J1*%
X94921666Y-84327380D02*
X94921666Y-85041666D01*
X94874047Y-85184523D01*
X94778809Y-85279761D01*
X94635952Y-85327380D01*
X94540714Y-85327380D01*
X95921666Y-85327380D02*
X95350238Y-85327380D01*
X95635952Y-85327380D02*
X95635952Y-84327380D01*
X95540714Y-84470238D01*
X95445476Y-84565476D01*
X95350238Y-84613095D01*
%TO.C,C1*%
X105878333Y-54557142D02*
X105830714Y-54604761D01*
X105687857Y-54652380D01*
X105592619Y-54652380D01*
X105449761Y-54604761D01*
X105354523Y-54509523D01*
X105306904Y-54414285D01*
X105259285Y-54223809D01*
X105259285Y-54080952D01*
X105306904Y-53890476D01*
X105354523Y-53795238D01*
X105449761Y-53700000D01*
X105592619Y-53652380D01*
X105687857Y-53652380D01*
X105830714Y-53700000D01*
X105878333Y-53747619D01*
X106830714Y-54652380D02*
X106259285Y-54652380D01*
X106545000Y-54652380D02*
X106545000Y-53652380D01*
X106449761Y-53795238D01*
X106354523Y-53890476D01*
X106259285Y-53938095D01*
%TO.C,R7*%
X113180833Y-89289880D02*
X112847500Y-88813690D01*
X112609404Y-89289880D02*
X112609404Y-88289880D01*
X112990357Y-88289880D01*
X113085595Y-88337500D01*
X113133214Y-88385119D01*
X113180833Y-88480357D01*
X113180833Y-88623214D01*
X113133214Y-88718452D01*
X113085595Y-88766071D01*
X112990357Y-88813690D01*
X112609404Y-88813690D01*
X113514166Y-88289880D02*
X114180833Y-88289880D01*
X113752261Y-89289880D01*
%TO.C,R3*%
X162440833Y-89607380D02*
X162107500Y-89131190D01*
X161869404Y-89607380D02*
X161869404Y-88607380D01*
X162250357Y-88607380D01*
X162345595Y-88655000D01*
X162393214Y-88702619D01*
X162440833Y-88797857D01*
X162440833Y-88940714D01*
X162393214Y-89035952D01*
X162345595Y-89083571D01*
X162250357Y-89131190D01*
X161869404Y-89131190D01*
X162774166Y-88607380D02*
X163393214Y-88607380D01*
X163059880Y-88988333D01*
X163202738Y-88988333D01*
X163297976Y-89035952D01*
X163345595Y-89083571D01*
X163393214Y-89178809D01*
X163393214Y-89416904D01*
X163345595Y-89512142D01*
X163297976Y-89559761D01*
X163202738Y-89607380D01*
X162917023Y-89607380D01*
X162821785Y-89559761D01*
X162774166Y-89512142D01*
%TO.C,J3*%
X90037380Y-102250833D02*
X90751666Y-102250833D01*
X90894523Y-102298452D01*
X90989761Y-102393690D01*
X91037380Y-102536547D01*
X91037380Y-102631785D01*
X90037380Y-101869880D02*
X90037380Y-101250833D01*
X90418333Y-101584166D01*
X90418333Y-101441309D01*
X90465952Y-101346071D01*
X90513571Y-101298452D01*
X90608809Y-101250833D01*
X90846904Y-101250833D01*
X90942142Y-101298452D01*
X90989761Y-101346071D01*
X91037380Y-101441309D01*
X91037380Y-101727023D01*
X90989761Y-101822261D01*
X90942142Y-101869880D01*
%TO.C,C8*%
X166782142Y-113196666D02*
X166829761Y-113244285D01*
X166877380Y-113387142D01*
X166877380Y-113482380D01*
X166829761Y-113625238D01*
X166734523Y-113720476D01*
X166639285Y-113768095D01*
X166448809Y-113815714D01*
X166305952Y-113815714D01*
X166115476Y-113768095D01*
X166020238Y-113720476D01*
X165925000Y-113625238D01*
X165877380Y-113482380D01*
X165877380Y-113387142D01*
X165925000Y-113244285D01*
X165972619Y-113196666D01*
X166305952Y-112625238D02*
X166258333Y-112720476D01*
X166210714Y-112768095D01*
X166115476Y-112815714D01*
X166067857Y-112815714D01*
X165972619Y-112768095D01*
X165925000Y-112720476D01*
X165877380Y-112625238D01*
X165877380Y-112434761D01*
X165925000Y-112339523D01*
X165972619Y-112291904D01*
X166067857Y-112244285D01*
X166115476Y-112244285D01*
X166210714Y-112291904D01*
X166258333Y-112339523D01*
X166305952Y-112434761D01*
X166305952Y-112625238D01*
X166353571Y-112720476D01*
X166401190Y-112768095D01*
X166496428Y-112815714D01*
X166686904Y-112815714D01*
X166782142Y-112768095D01*
X166829761Y-112720476D01*
X166877380Y-112625238D01*
X166877380Y-112434761D01*
X166829761Y-112339523D01*
X166782142Y-112291904D01*
X166686904Y-112244285D01*
X166496428Y-112244285D01*
X166401190Y-112291904D01*
X166353571Y-112339523D01*
X166305952Y-112434761D01*
%TO.C,RP1*%
X119957933Y-90826980D02*
X119624600Y-90350790D01*
X119386504Y-90826980D02*
X119386504Y-89826980D01*
X119767457Y-89826980D01*
X119862695Y-89874600D01*
X119910314Y-89922219D01*
X119957933Y-90017457D01*
X119957933Y-90160314D01*
X119910314Y-90255552D01*
X119862695Y-90303171D01*
X119767457Y-90350790D01*
X119386504Y-90350790D01*
X120386504Y-90826980D02*
X120386504Y-89826980D01*
X120767457Y-89826980D01*
X120862695Y-89874600D01*
X120910314Y-89922219D01*
X120957933Y-90017457D01*
X120957933Y-90160314D01*
X120910314Y-90255552D01*
X120862695Y-90303171D01*
X120767457Y-90350790D01*
X120386504Y-90350790D01*
X121910314Y-90826980D02*
X121338885Y-90826980D01*
X121624600Y-90826980D02*
X121624600Y-89826980D01*
X121529361Y-89969838D01*
X121434123Y-90065076D01*
X121338885Y-90112695D01*
%TO.C,H1*%
X94488095Y-45347380D02*
X94488095Y-44347380D01*
X94488095Y-44823571D02*
X95059523Y-44823571D01*
X95059523Y-45347380D02*
X95059523Y-44347380D01*
X96059523Y-45347380D02*
X95488095Y-45347380D01*
X95773809Y-45347380D02*
X95773809Y-44347380D01*
X95678571Y-44490238D01*
X95583333Y-44585476D01*
X95488095Y-44633095D01*
%TO.C,R2*%
X162440833Y-86432380D02*
X162107500Y-85956190D01*
X161869404Y-86432380D02*
X161869404Y-85432380D01*
X162250357Y-85432380D01*
X162345595Y-85480000D01*
X162393214Y-85527619D01*
X162440833Y-85622857D01*
X162440833Y-85765714D01*
X162393214Y-85860952D01*
X162345595Y-85908571D01*
X162250357Y-85956190D01*
X161869404Y-85956190D01*
X162821785Y-85527619D02*
X162869404Y-85480000D01*
X162964642Y-85432380D01*
X163202738Y-85432380D01*
X163297976Y-85480000D01*
X163345595Y-85527619D01*
X163393214Y-85622857D01*
X163393214Y-85718095D01*
X163345595Y-85860952D01*
X162774166Y-86432380D01*
X163393214Y-86432380D01*
%TO.C,C6*%
X163980833Y-67667142D02*
X163933214Y-67714761D01*
X163790357Y-67762380D01*
X163695119Y-67762380D01*
X163552261Y-67714761D01*
X163457023Y-67619523D01*
X163409404Y-67524285D01*
X163361785Y-67333809D01*
X163361785Y-67190952D01*
X163409404Y-67000476D01*
X163457023Y-66905238D01*
X163552261Y-66810000D01*
X163695119Y-66762380D01*
X163790357Y-66762380D01*
X163933214Y-66810000D01*
X163980833Y-66857619D01*
X164837976Y-66762380D02*
X164647500Y-66762380D01*
X164552261Y-66810000D01*
X164504642Y-66857619D01*
X164409404Y-67000476D01*
X164361785Y-67190952D01*
X164361785Y-67571904D01*
X164409404Y-67667142D01*
X164457023Y-67714761D01*
X164552261Y-67762380D01*
X164742738Y-67762380D01*
X164837976Y-67714761D01*
X164885595Y-67667142D01*
X164933214Y-67571904D01*
X164933214Y-67333809D01*
X164885595Y-67238571D01*
X164837976Y-67190952D01*
X164742738Y-67143333D01*
X164552261Y-67143333D01*
X164457023Y-67190952D01*
X164409404Y-67238571D01*
X164361785Y-67333809D01*
%TO.C,J2*%
X102592380Y-124485833D02*
X103306666Y-124485833D01*
X103449523Y-124533452D01*
X103544761Y-124628690D01*
X103592380Y-124771547D01*
X103592380Y-124866785D01*
X102687619Y-124057261D02*
X102640000Y-124009642D01*
X102592380Y-123914404D01*
X102592380Y-123676309D01*
X102640000Y-123581071D01*
X102687619Y-123533452D01*
X102782857Y-123485833D01*
X102878095Y-123485833D01*
X103020952Y-123533452D01*
X103592380Y-124104880D01*
X103592380Y-123485833D01*
%TO.C,H2*%
X94488095Y-121229880D02*
X94488095Y-120229880D01*
X94488095Y-120706071D02*
X95059523Y-120706071D01*
X95059523Y-121229880D02*
X95059523Y-120229880D01*
X95488095Y-120325119D02*
X95535714Y-120277500D01*
X95630952Y-120229880D01*
X95869047Y-120229880D01*
X95964285Y-120277500D01*
X96011904Y-120325119D01*
X96059523Y-120420357D01*
X96059523Y-120515595D01*
X96011904Y-120658452D01*
X95440476Y-121229880D01*
X96059523Y-121229880D01*
%TO.C,R9*%
X111228333Y-117037380D02*
X110895000Y-116561190D01*
X110656904Y-117037380D02*
X110656904Y-116037380D01*
X111037857Y-116037380D01*
X111133095Y-116085000D01*
X111180714Y-116132619D01*
X111228333Y-116227857D01*
X111228333Y-116370714D01*
X111180714Y-116465952D01*
X111133095Y-116513571D01*
X111037857Y-116561190D01*
X110656904Y-116561190D01*
X111704523Y-117037380D02*
X111895000Y-117037380D01*
X111990238Y-116989761D01*
X112037857Y-116942142D01*
X112133095Y-116799285D01*
X112180714Y-116608809D01*
X112180714Y-116227857D01*
X112133095Y-116132619D01*
X112085476Y-116085000D01*
X111990238Y-116037380D01*
X111799761Y-116037380D01*
X111704523Y-116085000D01*
X111656904Y-116132619D01*
X111609285Y-116227857D01*
X111609285Y-116465952D01*
X111656904Y-116561190D01*
X111704523Y-116608809D01*
X111799761Y-116656428D01*
X111990238Y-116656428D01*
X112085476Y-116608809D01*
X112133095Y-116561190D01*
X112180714Y-116465952D01*
%TO.C,R1*%
X162440833Y-83257380D02*
X162107500Y-82781190D01*
X161869404Y-83257380D02*
X161869404Y-82257380D01*
X162250357Y-82257380D01*
X162345595Y-82305000D01*
X162393214Y-82352619D01*
X162440833Y-82447857D01*
X162440833Y-82590714D01*
X162393214Y-82685952D01*
X162345595Y-82733571D01*
X162250357Y-82781190D01*
X161869404Y-82781190D01*
X163393214Y-83257380D02*
X162821785Y-83257380D01*
X163107500Y-83257380D02*
X163107500Y-82257380D01*
X163012261Y-82400238D01*
X162917023Y-82495476D01*
X162821785Y-82543095D01*
%TO.C,H4*%
X173863095Y-45347380D02*
X173863095Y-44347380D01*
X173863095Y-44823571D02*
X174434523Y-44823571D01*
X174434523Y-45347380D02*
X174434523Y-44347380D01*
X175339285Y-44680714D02*
X175339285Y-45347380D01*
X175101190Y-44299761D02*
X174863095Y-45014047D01*
X175482142Y-45014047D01*
%TO.C,R4*%
X162440833Y-94687380D02*
X162107500Y-94211190D01*
X161869404Y-94687380D02*
X161869404Y-93687380D01*
X162250357Y-93687380D01*
X162345595Y-93735000D01*
X162393214Y-93782619D01*
X162440833Y-93877857D01*
X162440833Y-94020714D01*
X162393214Y-94115952D01*
X162345595Y-94163571D01*
X162250357Y-94211190D01*
X161869404Y-94211190D01*
X163297976Y-94020714D02*
X163297976Y-94687380D01*
X163059880Y-93639761D02*
X162821785Y-94354047D01*
X163440833Y-94354047D01*
%TO.C,Q1*%
X105949761Y-52795119D02*
X105854523Y-52747500D01*
X105759285Y-52652261D01*
X105616428Y-52509404D01*
X105521190Y-52461785D01*
X105425952Y-52461785D01*
X105473571Y-52699880D02*
X105378333Y-52652261D01*
X105283095Y-52557023D01*
X105235476Y-52366547D01*
X105235476Y-52033214D01*
X105283095Y-51842738D01*
X105378333Y-51747500D01*
X105473571Y-51699880D01*
X105664047Y-51699880D01*
X105759285Y-51747500D01*
X105854523Y-51842738D01*
X105902142Y-52033214D01*
X105902142Y-52366547D01*
X105854523Y-52557023D01*
X105759285Y-52652261D01*
X105664047Y-52699880D01*
X105473571Y-52699880D01*
X106854523Y-52699880D02*
X106283095Y-52699880D01*
X106568809Y-52699880D02*
X106568809Y-51699880D01*
X106473571Y-51842738D01*
X106378333Y-51937976D01*
X106283095Y-51985595D01*
%TO.C,C3*%
X113180833Y-95832142D02*
X113133214Y-95879761D01*
X112990357Y-95927380D01*
X112895119Y-95927380D01*
X112752261Y-95879761D01*
X112657023Y-95784523D01*
X112609404Y-95689285D01*
X112561785Y-95498809D01*
X112561785Y-95355952D01*
X112609404Y-95165476D01*
X112657023Y-95070238D01*
X112752261Y-94975000D01*
X112895119Y-94927380D01*
X112990357Y-94927380D01*
X113133214Y-94975000D01*
X113180833Y-95022619D01*
X113514166Y-94927380D02*
X114133214Y-94927380D01*
X113799880Y-95308333D01*
X113942738Y-95308333D01*
X114037976Y-95355952D01*
X114085595Y-95403571D01*
X114133214Y-95498809D01*
X114133214Y-95736904D01*
X114085595Y-95832142D01*
X114037976Y-95879761D01*
X113942738Y-95927380D01*
X113657023Y-95927380D01*
X113561785Y-95879761D01*
X113514166Y-95832142D01*
%TO.C,J5*%
X165299880Y-77485833D02*
X166014166Y-77485833D01*
X166157023Y-77533452D01*
X166252261Y-77628690D01*
X166299880Y-77771547D01*
X166299880Y-77866785D01*
X165299880Y-76533452D02*
X165299880Y-77009642D01*
X165776071Y-77057261D01*
X165728452Y-77009642D01*
X165680833Y-76914404D01*
X165680833Y-76676309D01*
X165728452Y-76581071D01*
X165776071Y-76533452D01*
X165871309Y-76485833D01*
X166109404Y-76485833D01*
X166204642Y-76533452D01*
X166252261Y-76581071D01*
X166299880Y-76676309D01*
X166299880Y-76914404D01*
X166252261Y-77009642D01*
X166204642Y-77057261D01*
%TO.C,R6*%
X113133333Y-92464880D02*
X112800000Y-91988690D01*
X112561904Y-92464880D02*
X112561904Y-91464880D01*
X112942857Y-91464880D01*
X113038095Y-91512500D01*
X113085714Y-91560119D01*
X113133333Y-91655357D01*
X113133333Y-91798214D01*
X113085714Y-91893452D01*
X113038095Y-91941071D01*
X112942857Y-91988690D01*
X112561904Y-91988690D01*
X113990476Y-91464880D02*
X113800000Y-91464880D01*
X113704761Y-91512500D01*
X113657142Y-91560119D01*
X113561904Y-91702976D01*
X113514285Y-91893452D01*
X113514285Y-92274404D01*
X113561904Y-92369642D01*
X113609523Y-92417261D01*
X113704761Y-92464880D01*
X113895238Y-92464880D01*
X113990476Y-92417261D01*
X114038095Y-92369642D01*
X114085714Y-92274404D01*
X114085714Y-92036309D01*
X114038095Y-91941071D01*
X113990476Y-91893452D01*
X113895238Y-91845833D01*
X113704761Y-91845833D01*
X113609523Y-91893452D01*
X113561904Y-91941071D01*
X113514285Y-92036309D01*
%TO.C,U2*%
X107823095Y-58737380D02*
X107823095Y-59546904D01*
X107870714Y-59642142D01*
X107918333Y-59689761D01*
X108013571Y-59737380D01*
X108204047Y-59737380D01*
X108299285Y-59689761D01*
X108346904Y-59642142D01*
X108394523Y-59546904D01*
X108394523Y-58737380D01*
X108823095Y-58832619D02*
X108870714Y-58785000D01*
X108965952Y-58737380D01*
X109204047Y-58737380D01*
X109299285Y-58785000D01*
X109346904Y-58832619D01*
X109394523Y-58927857D01*
X109394523Y-59023095D01*
X109346904Y-59165952D01*
X108775476Y-59737380D01*
X109394523Y-59737380D01*
%TO.C,R8*%
X116355833Y-117037380D02*
X116022500Y-116561190D01*
X115784404Y-117037380D02*
X115784404Y-116037380D01*
X116165357Y-116037380D01*
X116260595Y-116085000D01*
X116308214Y-116132619D01*
X116355833Y-116227857D01*
X116355833Y-116370714D01*
X116308214Y-116465952D01*
X116260595Y-116513571D01*
X116165357Y-116561190D01*
X115784404Y-116561190D01*
X116927261Y-116465952D02*
X116832023Y-116418333D01*
X116784404Y-116370714D01*
X116736785Y-116275476D01*
X116736785Y-116227857D01*
X116784404Y-116132619D01*
X116832023Y-116085000D01*
X116927261Y-116037380D01*
X117117738Y-116037380D01*
X117212976Y-116085000D01*
X117260595Y-116132619D01*
X117308214Y-116227857D01*
X117308214Y-116275476D01*
X117260595Y-116370714D01*
X117212976Y-116418333D01*
X117117738Y-116465952D01*
X116927261Y-116465952D01*
X116832023Y-116513571D01*
X116784404Y-116561190D01*
X116736785Y-116656428D01*
X116736785Y-116846904D01*
X116784404Y-116942142D01*
X116832023Y-116989761D01*
X116927261Y-117037380D01*
X117117738Y-117037380D01*
X117212976Y-116989761D01*
X117260595Y-116942142D01*
X117308214Y-116846904D01*
X117308214Y-116656428D01*
X117260595Y-116561190D01*
X117212976Y-116513571D01*
X117117738Y-116465952D01*
%TO.C,R10*%
X105672142Y-117037380D02*
X105338809Y-116561190D01*
X105100714Y-117037380D02*
X105100714Y-116037380D01*
X105481666Y-116037380D01*
X105576904Y-116085000D01*
X105624523Y-116132619D01*
X105672142Y-116227857D01*
X105672142Y-116370714D01*
X105624523Y-116465952D01*
X105576904Y-116513571D01*
X105481666Y-116561190D01*
X105100714Y-116561190D01*
X106624523Y-117037380D02*
X106053095Y-117037380D01*
X106338809Y-117037380D02*
X106338809Y-116037380D01*
X106243571Y-116180238D01*
X106148333Y-116275476D01*
X106053095Y-116323095D01*
X107243571Y-116037380D02*
X107338809Y-116037380D01*
X107434047Y-116085000D01*
X107481666Y-116132619D01*
X107529285Y-116227857D01*
X107576904Y-116418333D01*
X107576904Y-116656428D01*
X107529285Y-116846904D01*
X107481666Y-116942142D01*
X107434047Y-116989761D01*
X107338809Y-117037380D01*
X107243571Y-117037380D01*
X107148333Y-116989761D01*
X107100714Y-116942142D01*
X107053095Y-116846904D01*
X107005476Y-116656428D01*
X107005476Y-116418333D01*
X107053095Y-116227857D01*
X107100714Y-116132619D01*
X107148333Y-116085000D01*
X107243571Y-116037380D01*
%TO.C,U1*%
X137688095Y-54502380D02*
X137688095Y-55311904D01*
X137735714Y-55407142D01*
X137783333Y-55454761D01*
X137878571Y-55502380D01*
X138069047Y-55502380D01*
X138164285Y-55454761D01*
X138211904Y-55407142D01*
X138259523Y-55311904D01*
X138259523Y-54502380D01*
X139259523Y-55502380D02*
X138688095Y-55502380D01*
X138973809Y-55502380D02*
X138973809Y-54502380D01*
X138878571Y-54645238D01*
X138783333Y-54740476D01*
X138688095Y-54788095D01*
D12*
%TO.C,C2*%
X110863748Y-55145000D02*
X111386252Y-55145000D01*
X110863748Y-56615000D02*
X111386252Y-56615000D01*
%TO.C,C7*%
X163436248Y-56790000D02*
X164858752Y-56790000D01*
X163436248Y-54970000D02*
X164858752Y-54970000D01*
%TO.C,R5*%
X162380436Y-98325000D02*
X162834564Y-98325000D01*
X162380436Y-99795000D02*
X162834564Y-99795000D01*
D13*
%TO.C,J4*%
X177419000Y-104409240D02*
X177673000Y-104409240D01*
X176022000Y-75326240D02*
X177419000Y-74564240D01*
X179705000Y-97551240D02*
X185547000Y-97551240D01*
X179705000Y-75326240D02*
X185547000Y-75326240D01*
X185547000Y-104536240D02*
X185547000Y-99456240D01*
X179705000Y-100472240D02*
X185547000Y-100472240D01*
X177800000Y-77993240D02*
X175260000Y-77993240D01*
X179705000Y-104917240D02*
X179705000Y-73929240D01*
X177673000Y-74564240D02*
X177419000Y-74564240D01*
X177419000Y-79136240D02*
X177673000Y-79136240D01*
X177673000Y-79136240D02*
X177673000Y-74564240D01*
X176022000Y-103520240D02*
X177419000Y-104409240D01*
X176022000Y-78501240D02*
X176022000Y-75326240D01*
X175260000Y-100853240D02*
X177800000Y-100853240D01*
X177419000Y-74564240D02*
X177419000Y-79136240D01*
X179705000Y-103520240D02*
X185547000Y-103520240D01*
X179705000Y-104536240D02*
X185547000Y-104536240D01*
X177800000Y-103139240D02*
X175260000Y-103139240D01*
X179705000Y-78374240D02*
X185547000Y-78374240D01*
X176022000Y-103520240D02*
X176022000Y-100345240D01*
X175260000Y-75707240D02*
X177800000Y-75707240D01*
X176022000Y-78501240D02*
X177419000Y-79136240D01*
X185547000Y-81295240D02*
X179705000Y-81295240D01*
X171323000Y-73929240D02*
X171323000Y-104917240D01*
X179705000Y-104917240D02*
X171323000Y-104917240D01*
X177419000Y-99583240D02*
X177419000Y-104409240D01*
X185547000Y-74310240D02*
X179832000Y-74310240D01*
X176022000Y-100345240D02*
X177419000Y-99583240D01*
X177673000Y-99583240D02*
X177419000Y-99583240D01*
X175260000Y-103139240D02*
X175260000Y-100853240D01*
X175260000Y-77993240D02*
X175260000Y-75707240D01*
X179705000Y-79390240D02*
X185547000Y-79390240D01*
X177673000Y-104409240D02*
X177673000Y-99583240D01*
X185547000Y-97551240D02*
X185547000Y-81295240D01*
X185547000Y-79390240D02*
X185547000Y-74310240D01*
X171323000Y-98440240D02*
X179679600Y-98440240D01*
X179705000Y-99456240D02*
X185547000Y-99456240D01*
X171323000Y-73929240D02*
X179705000Y-73929240D01*
X179679600Y-80406240D02*
X171323000Y-80406240D01*
D12*
%TO.C,J6*%
X173612500Y-115625000D02*
X176272500Y-115625000D01*
X176272500Y-113025000D02*
X176272500Y-115625000D01*
X173612500Y-110425000D02*
X174942500Y-110425000D01*
X173612500Y-111755000D02*
X173612500Y-110425000D01*
X173612500Y-113025000D02*
X173612500Y-115625000D01*
X173612500Y-113025000D02*
X176272500Y-113025000D01*
%TO.C,U3*%
X113347500Y-99705000D02*
X115297500Y-99705000D01*
X113347500Y-108575000D02*
X115297500Y-108575000D01*
X113347500Y-99705000D02*
X109897500Y-99705000D01*
X113347500Y-108575000D02*
X111397500Y-108575000D01*
%TO.C,U5*%
X165840000Y-59097500D02*
X164340000Y-59097500D01*
X164340000Y-59097500D02*
X164340000Y-59367500D01*
X164340000Y-65727500D02*
X163240000Y-65727500D01*
X165840000Y-65997500D02*
X164340000Y-65997500D01*
X164340000Y-59367500D02*
X161510000Y-59367500D01*
X164340000Y-65997500D02*
X164340000Y-65727500D01*
%TO.C,J1*%
X97855000Y-81275000D02*
X95255000Y-81275000D01*
X97855000Y-81275000D02*
X97855000Y-58355000D01*
X97855000Y-82545000D02*
X97855000Y-83875000D01*
X97855000Y-58355000D02*
X92655000Y-58355000D01*
X97855000Y-83875000D02*
X96525000Y-83875000D01*
X92655000Y-83875000D02*
X92655000Y-58355000D01*
X95255000Y-81275000D02*
X95255000Y-83875000D01*
X95255000Y-83875000D02*
X92655000Y-83875000D01*
%TO.C,C1*%
X105783748Y-56615000D02*
X106306252Y-56615000D01*
X105783748Y-55145000D02*
X106306252Y-55145000D01*
%TO.C,R7*%
X113120436Y-89752500D02*
X113574564Y-89752500D01*
X113120436Y-91222500D02*
X113574564Y-91222500D01*
%TO.C,R3*%
X162380436Y-91540000D02*
X162834564Y-91540000D01*
X162380436Y-90070000D02*
X162834564Y-90070000D01*
D10*
%TO.C,J3*%
X89635000Y-108917500D02*
X102135000Y-108917500D01*
X91535000Y-108917500D02*
X91535000Y-94917500D01*
X102135000Y-108917500D02*
X102135000Y-94917500D01*
X89635000Y-94917500D02*
X89635000Y-108917500D01*
X102135000Y-94917500D02*
X89635000Y-94917500D01*
D12*
%TO.C,C8*%
X167365000Y-113741252D02*
X167365000Y-112318748D01*
X169185000Y-113741252D02*
X169185000Y-112318748D01*
%TO.C,RP1*%
X121954600Y-86334600D02*
X119294600Y-86334600D01*
X120624600Y-88934600D02*
X119294600Y-88934600D01*
X119294600Y-86334600D02*
X119294600Y-65954600D01*
X121954600Y-65954600D02*
X119294600Y-65954600D01*
X119294600Y-88934600D02*
X119294600Y-87604600D01*
X121954600Y-86334600D02*
X121954600Y-65954600D01*
%TO.C,R2*%
X162380436Y-88365000D02*
X162834564Y-88365000D01*
X162380436Y-86895000D02*
X162834564Y-86895000D01*
%TO.C,C6*%
X163436248Y-70125000D02*
X164858752Y-70125000D01*
X163436248Y-68305000D02*
X164858752Y-68305000D01*
%TO.C,J2*%
X105570000Y-123867500D02*
X105570000Y-129867500D01*
X105450000Y-123867500D02*
X105450000Y-129867500D01*
X118490000Y-129867500D02*
X118490000Y-123867500D01*
X104080000Y-121207500D02*
X119440000Y-121207500D01*
X113410000Y-129867500D02*
X113410000Y-123867500D01*
X115950000Y-129867500D02*
X115950000Y-123867500D01*
X119440000Y-121207500D02*
X119440000Y-123867500D01*
X112650000Y-120810429D02*
X112650000Y-121207500D01*
X118490000Y-120810429D02*
X118490000Y-121207500D01*
X104080000Y-123867500D02*
X104080000Y-121207500D01*
X105030000Y-123867500D02*
X105030000Y-129867500D01*
X106680000Y-121207500D02*
X106680000Y-123867500D01*
X119440000Y-123867500D02*
X104080000Y-123867500D01*
X110870000Y-129867500D02*
X110870000Y-123867500D01*
X115190000Y-120810429D02*
X115190000Y-121207500D01*
X111760000Y-121207500D02*
X111760000Y-123867500D01*
X115950000Y-120810429D02*
X115950000Y-121207500D01*
X105690000Y-123867500D02*
X105690000Y-129867500D01*
X105410000Y-118497500D02*
X104140000Y-118497500D01*
X114300000Y-121207500D02*
X114300000Y-123867500D01*
X105790000Y-120877500D02*
X105790000Y-121207500D01*
X107570000Y-123867500D02*
X107570000Y-129867500D01*
X110110000Y-129867500D02*
X110870000Y-129867500D01*
X105030000Y-120877500D02*
X105030000Y-121207500D01*
X110110000Y-123867500D02*
X110110000Y-129867500D01*
X109220000Y-121207500D02*
X109220000Y-123867500D01*
X105790000Y-129867500D02*
X105790000Y-123867500D01*
X107570000Y-120810429D02*
X107570000Y-121207500D01*
X104140000Y-118497500D02*
X104140000Y-119767500D01*
X112650000Y-129867500D02*
X113410000Y-129867500D01*
X117730000Y-120810429D02*
X117730000Y-121207500D01*
X110110000Y-120810429D02*
X110110000Y-121207500D01*
X117730000Y-129867500D02*
X118490000Y-129867500D01*
X108330000Y-129867500D02*
X108330000Y-123867500D01*
X117730000Y-123867500D02*
X117730000Y-129867500D01*
X105330000Y-123867500D02*
X105330000Y-129867500D01*
X105210000Y-123867500D02*
X105210000Y-129867500D01*
X105090000Y-123867500D02*
X105090000Y-129867500D01*
X116840000Y-121207500D02*
X116840000Y-123867500D01*
X115190000Y-123867500D02*
X115190000Y-129867500D01*
X108330000Y-120810429D02*
X108330000Y-121207500D01*
X110870000Y-120810429D02*
X110870000Y-121207500D01*
X107570000Y-129867500D02*
X108330000Y-129867500D01*
X105030000Y-129867500D02*
X105790000Y-129867500D01*
X113410000Y-120810429D02*
X113410000Y-121207500D01*
X115190000Y-129867500D02*
X115950000Y-129867500D01*
X112650000Y-123867500D02*
X112650000Y-129867500D01*
%TO.C,R9*%
X111622064Y-114200000D02*
X111167936Y-114200000D01*
X111622064Y-115670000D02*
X111167936Y-115670000D01*
%TO.C,R1*%
X162380436Y-83720000D02*
X162834564Y-83720000D01*
X162380436Y-85190000D02*
X162834564Y-85190000D01*
%TO.C,R4*%
X162380436Y-95150000D02*
X162834564Y-95150000D01*
X162380436Y-96620000D02*
X162834564Y-96620000D01*
%TO.C,Q1*%
X106045000Y-48287500D02*
X106695000Y-48287500D01*
X106045000Y-51407500D02*
X107720000Y-51407500D01*
X106045000Y-51407500D02*
X105395000Y-51407500D01*
X106045000Y-48287500D02*
X105395000Y-48287500D01*
%TO.C,C3*%
X113086248Y-97890000D02*
X113608752Y-97890000D01*
X113086248Y-96420000D02*
X113608752Y-96420000D01*
%TO.C,J5*%
X162247500Y-78482500D02*
X159647500Y-78482500D01*
X162247500Y-75822500D02*
X159647500Y-75822500D01*
X159647500Y-75822500D02*
X159647500Y-78482500D01*
X162247500Y-75822500D02*
X162247500Y-78482500D01*
X164847500Y-75822500D02*
X164847500Y-77152500D01*
X163517500Y-75822500D02*
X164847500Y-75822500D01*
%TO.C,R6*%
X113072936Y-92927500D02*
X113527064Y-92927500D01*
X113072936Y-94397500D02*
X113527064Y-94397500D01*
%TO.C,U2*%
X108585000Y-68170000D02*
X106385000Y-68170000D01*
X108585000Y-68170000D02*
X110785000Y-68170000D01*
X108585000Y-60100000D02*
X110785000Y-60100000D01*
X108585000Y-60100000D02*
X104985000Y-60100000D01*
%TO.C,R8*%
X116749564Y-114200000D02*
X116295436Y-114200000D01*
X116749564Y-115670000D02*
X116295436Y-115670000D01*
%TO.C,R10*%
X106542064Y-114200000D02*
X106087936Y-114200000D01*
X106542064Y-115670000D02*
X106087936Y-115670000D01*
%TO.C,U1*%
X125500000Y-56050000D02*
X125500000Y-116670000D01*
X151400000Y-56050000D02*
X141490000Y-56050000D01*
X125500000Y-116670000D02*
X151400000Y-116670000D01*
X151400000Y-116670000D02*
X151400000Y-56050000D01*
X135410001Y-56410000D02*
X135410001Y-56050000D01*
X141490000Y-56410000D02*
X135410001Y-56410000D01*
X135410001Y-56050000D02*
X125500000Y-56050000D01*
X141490000Y-56050000D02*
X141490000Y-56410000D01*
%TD*%
M02*
