M48
; DRILL file {KiCad (6.0.0)} date Tue Jul 26 05:52:12 2022
; FORMAT={-:-/ absolute / inch / decimal}
; #@! TF.CreationDate,2022-07-26T05:52:12-04:00
; #@! TF.GenerationSoftware,Kicad,Pcbnew,(6.0.0)
; #@! TF.FileFunction,Plated,1,2,PTH
FMAT,2
INCH
; #@! TA.AperFunction,Plated,PTH,ViaDrill
T1C0.0157
; #@! TA.AperFunction,Plated,PTH,ComponentDrill
T2C0.0197
; #@! TA.AperFunction,Plated,PTH,ComponentDrill
T3C0.0256
; #@! TA.AperFunction,Plated,PTH,ComponentDrill
T4C0.0276
; #@! TA.AperFunction,Plated,PTH,ComponentDrill
T5C0.0315
; #@! TA.AperFunction,Plated,PTH,ComponentDrill
T6C0.0354
; #@! TA.AperFunction,Plated,PTH,ComponentDrill
T7C0.0394
; #@! TA.AperFunction,Plated,PTH,ComponentDrill
T8C0.0787
; #@! TA.AperFunction,Plated,PTH,ComponentDrill
T9C0.0866
; #@! TA.AperFunction,Plated,PTH,ComponentDrill
T10C0.1181
; #@! TA.AperFunction,Plated,PTH,ComponentDrill
T11C0.1260
%
G90
G05
T1
X4.275Y-2.2
X4.2875Y-1.925
X4.2875Y-2.6625
X4.2875Y-3.95
X4.2875Y-4.25
X4.325Y-2.3
X4.3625Y-2.0
X4.425Y-4.35
X4.4625Y-2.0
X4.5375Y-4.35
X4.5599Y-3.825
X4.5625Y-1.9375
X4.5625Y-3.3625
X4.5625Y-3.5625
X4.5625Y-3.6875
X4.6Y-1.9375
X4.65Y-4.15
X5.6375Y-3.85
X5.7375Y-3.95
X6.0625Y-1.9375
X6.0625Y-1.975
X6.0625Y-2.55
X6.4Y-2.2875
X6.6Y-2.2
X6.6Y-2.725
X6.9269Y-3.8
T2
X3.6614Y-1.925
X3.6614Y-4.9125
X3.6874Y-1.8624
X3.6874Y-1.9876
X3.6874Y-4.8499
X3.6874Y-4.9751
X3.75Y-1.8364
X3.75Y-2.0136
X3.75Y-4.8239
X3.75Y-5.0011
X3.8126Y-1.8624
X3.8126Y-1.9876
X3.8126Y-4.8499
X3.8126Y-4.9751
X3.8386Y-1.925
X3.8386Y-4.9125
X6.7864Y-1.925
X6.7864Y-4.9125
X6.8124Y-1.8624
X6.8124Y-1.9876
X6.8124Y-4.8499
X6.8124Y-4.9751
X6.875Y-1.8364
X6.875Y-2.0136
X6.875Y-4.8239
X6.875Y-5.0011
X6.9376Y-1.8624
X6.9376Y-1.9876
X6.9376Y-4.8499
X6.9376Y-4.9751
X6.9636Y-1.925
X6.9636Y-4.9125
T3
X6.86Y-3.3509
T4
X6.86Y-3.4411
X6.86Y-3.5311
X6.86Y-3.6214
X6.86Y-3.7115
X6.9295Y-3.3058
X6.9295Y-3.3961
X6.9295Y-3.4866
X6.9295Y-3.5771
X6.9295Y-3.6666
X7.0Y-3.3509
X7.0Y-3.4411
X7.0Y-3.5312
X7.0Y-3.6214
X7.0Y-3.7116
T5
X4.749Y-2.649
X4.749Y-2.749
X4.749Y-2.849
X4.749Y-2.949
X4.749Y-3.049
X4.749Y-3.149
X4.749Y-3.249
X4.749Y-3.349
X4.749Y-3.449
X5.0Y-2.25
X5.0Y-2.35
X5.0Y-2.45
X5.0Y-2.55
X5.0Y-2.65
X5.0Y-2.75
X5.0Y-2.85
X5.0Y-2.95
X5.0Y-3.05
X5.0Y-3.15
X5.0Y-3.25
X5.0Y-3.35
X5.0Y-3.45
X5.0Y-3.55
X5.0Y-3.65
X5.0Y-3.75
X5.0Y-3.85
X5.0Y-3.95
X5.0Y-4.05
X5.0Y-4.15
X5.0Y-4.25
X5.0Y-4.35
X5.0Y-4.45
X5.0Y-4.55
X5.9016Y-2.25
X5.9016Y-2.35
X5.9016Y-2.45
X5.9016Y-2.55
X5.9016Y-2.65
X5.9016Y-2.75
X5.9016Y-2.85
X5.9016Y-2.95
X5.9016Y-3.05
X5.9016Y-3.15
X5.9016Y-3.25
X5.9016Y-3.35
X5.9016Y-3.45
X5.9016Y-3.55
X5.9016Y-3.65
X5.9016Y-3.75
X5.9016Y-3.85
X5.9016Y-3.95
X5.9016Y-4.05
X5.9016Y-4.15
X5.9016Y-4.25
X5.9016Y-4.35
X5.9016Y-4.45
X5.9016Y-4.55
T6
X3.8636Y-3.8786
X3.8636Y-3.9613
X3.8636Y-4.0637
X3.8636Y-4.1464
X3.962Y-3.8786
X3.962Y-4.1464
T7
X3.6628Y-3.9141
X3.6628Y-4.1109
X3.7002Y-2.3498
X3.7002Y-2.4498
X3.7002Y-2.5498
X3.7002Y-2.6498
X3.7002Y-2.7498
X3.7002Y-2.8498
X3.7002Y-2.9498
X3.7002Y-3.0498
X3.7002Y-3.1498
X3.7002Y-3.2498
X3.8002Y-2.3498
X3.8002Y-2.4498
X3.8002Y-2.5498
X3.8002Y-2.6498
X3.8002Y-2.7498
X3.8002Y-2.8498
X3.8002Y-2.9498
X3.8002Y-3.0498
X3.8002Y-3.1498
X3.8002Y-3.2498
X3.962Y-3.8156
X3.962Y-4.2094
X4.15Y-4.7153
X4.25Y-4.7153
X4.35Y-4.7153
X4.45Y-4.7153
X4.55Y-4.7153
X4.65Y-4.7153
X6.3377Y-3.0375
X6.4377Y-3.0375
X6.8875Y-4.3998
X6.8875Y-4.4998
T8
X3.7455Y-3.7369
X3.7455Y-4.2881
T9
X3.714Y-4.0125
T10
X3.75Y-1.925
X3.75Y-4.9125
X6.875Y-1.925
X6.875Y-4.9125
T11
X6.9277Y-3.0287
X6.9277Y-4.0125
T0
M30
