%TF.GenerationSoftware,KiCad,Pcbnew,(6.0.0)*%
%TF.CreationDate,2022-07-26T05:52:08-04:00*%
%TF.ProjectId,TRS-80-M3-KEY,5452532d-3830-42d4-9d33-2d4b45592e6b,rev?*%
%TF.SameCoordinates,Original*%
%TF.FileFunction,Copper,L1,Top*%
%TF.FilePolarity,Positive*%
%FSLAX46Y46*%
G04 Gerber Fmt 4.6, Leading zero omitted, Abs format (unit mm)*
G04 Created by KiCad (PCBNEW (6.0.0)) date 2022-07-26 05:52:08*
%MOMM*%
%LPD*%
G01*
G04 APERTURE LIST*
G04 Aperture macros list*
%AMRoundRect*
0 Rectangle with rounded corners*
0 $1 Rounding radius*
0 $2 $3 $4 $5 $6 $7 $8 $9 X,Y pos of 4 corners*
0 Add a 4 corners polygon primitive as box body*
4,1,4,$2,$3,$4,$5,$6,$7,$8,$9,$2,$3,0*
0 Add four circle primitives for the rounded corners*
1,1,$1+$1,$2,$3*
1,1,$1+$1,$4,$5*
1,1,$1+$1,$6,$7*
1,1,$1+$1,$8,$9*
0 Add four rect primitives between the rounded corners*
20,1,$1+$1,$2,$3,$4,$5,0*
20,1,$1+$1,$4,$5,$6,$7,0*
20,1,$1+$1,$6,$7,$8,$9,0*
20,1,$1+$1,$8,$9,$2,$3,0*%
G04 Aperture macros list end*
%TA.AperFunction,SMDPad,CuDef*%
%ADD10RoundRect,0.250000X-0.337500X-0.475000X0.337500X-0.475000X0.337500X0.475000X-0.337500X0.475000X0*%
%TD*%
%TA.AperFunction,SMDPad,CuDef*%
%ADD11RoundRect,0.250000X-0.412500X-0.650000X0.412500X-0.650000X0.412500X0.650000X-0.412500X0.650000X0*%
%TD*%
%TA.AperFunction,ComponentPad*%
%ADD12C,0.800000*%
%TD*%
%TA.AperFunction,ComponentPad*%
%ADD13C,6.000000*%
%TD*%
%TA.AperFunction,SMDPad,CuDef*%
%ADD14RoundRect,0.250000X-0.350000X-0.450000X0.350000X-0.450000X0.350000X0.450000X-0.350000X0.450000X0*%
%TD*%
%TA.AperFunction,ComponentPad*%
%ADD15C,5.001260*%
%TD*%
%TA.AperFunction,ComponentPad*%
%ADD16C,1.198880*%
%TD*%
%TA.AperFunction,ComponentPad*%
%ADD17R,1.700000X1.700000*%
%TD*%
%TA.AperFunction,ComponentPad*%
%ADD18O,1.700000X1.700000*%
%TD*%
%TA.AperFunction,SMDPad,CuDef*%
%ADD19RoundRect,0.150000X-0.825000X-0.150000X0.825000X-0.150000X0.825000X0.150000X-0.825000X0.150000X0*%
%TD*%
%TA.AperFunction,SMDPad,CuDef*%
%ADD20R,2.200000X1.200000*%
%TD*%
%TA.AperFunction,SMDPad,CuDef*%
%ADD21R,6.400000X5.800000*%
%TD*%
%TA.AperFunction,ComponentPad*%
%ADD22C,2.700000*%
%TD*%
%TA.AperFunction,ComponentPad*%
%ADD23C,2.899999*%
%TD*%
%TA.AperFunction,ComponentPad*%
%ADD24C,1.600000*%
%TD*%
%TA.AperFunction,ComponentPad*%
%ADD25C,1.000000*%
%TD*%
%TA.AperFunction,SMDPad,CuDef*%
%ADD26RoundRect,0.250000X0.650000X-0.412500X0.650000X0.412500X-0.650000X0.412500X-0.650000X-0.412500X0*%
%TD*%
%TA.AperFunction,ComponentPad*%
%ADD27R,1.700000X1.200000*%
%TD*%
%TA.AperFunction,ComponentPad*%
%ADD28O,1.700000X1.200000*%
%TD*%
%TA.AperFunction,SMDPad,CuDef*%
%ADD29RoundRect,0.250000X0.350000X0.450000X-0.350000X0.450000X-0.350000X-0.450000X0.350000X-0.450000X0*%
%TD*%
%TA.AperFunction,SMDPad,CuDef*%
%ADD30RoundRect,0.150000X0.587500X0.150000X-0.587500X0.150000X-0.587500X-0.150000X0.587500X-0.150000X0*%
%TD*%
%TA.AperFunction,SMDPad,CuDef*%
%ADD31RoundRect,0.100000X-0.637500X-0.100000X0.637500X-0.100000X0.637500X0.100000X-0.637500X0.100000X0*%
%TD*%
%TA.AperFunction,ComponentPad*%
%ADD32O,2.000000X1.200000*%
%TD*%
%TA.AperFunction,ViaPad*%
%ADD33C,0.800000*%
%TD*%
%TA.AperFunction,Conductor*%
%ADD34C,0.635000*%
%TD*%
%TA.AperFunction,Conductor*%
%ADD35C,0.304800*%
%TD*%
%TA.AperFunction,Conductor*%
%ADD36C,0.250000*%
%TD*%
G04 APERTURE END LIST*
D10*
%TO.P,C2,1*%
%TO.N,GND*%
X110087500Y-55880000D03*
%TO.P,C2,2*%
%TO.N,+1V8*%
X112162500Y-55880000D03*
%TD*%
D11*
%TO.P,C7,1*%
%TO.N,+1V8*%
X162585000Y-55880000D03*
%TO.P,C7,2*%
%TO.N,GND*%
X165710000Y-55880000D03*
%TD*%
D12*
%TO.P,H3,1*%
%TO.N,N/C*%
X172375000Y-124777500D03*
X174625000Y-122527500D03*
D13*
X174625000Y-124777500D03*
D12*
X173034010Y-123186510D03*
X173034010Y-126368490D03*
X176215990Y-123186510D03*
X176215990Y-126368490D03*
X176875000Y-124777500D03*
X174625000Y-127027500D03*
%TD*%
D14*
%TO.P,R5,1*%
%TO.N,VGA_HSYNC*%
X161607500Y-99060000D03*
%TO.P,R5,2*%
%TO.N,Net-(J4-Pad13)*%
X163607500Y-99060000D03*
%TD*%
D15*
%TO.P,J4,0,Case*%
%TO.N,GND*%
X175963580Y-101917500D03*
X175963580Y-76928980D03*
D16*
%TO.P,J4,1*%
%TO.N,Net-(J4-Pad1)*%
X174244600Y-85112860D03*
%TO.P,J4,2*%
%TO.N,Net-(J4-Pad2)*%
X174244600Y-87403940D03*
%TO.P,J4,3*%
%TO.N,Net-(J4-Pad3)*%
X174244600Y-89689940D03*
%TO.P,J4,4*%
%TO.N,unconnected-(J4-Pad4)*%
X174244600Y-91983560D03*
%TO.P,J4,5*%
%TO.N,GND*%
X174244600Y-94272100D03*
%TO.P,J4,6*%
X176009300Y-83967320D03*
%TO.P,J4,7*%
X176009300Y-86260940D03*
%TO.P,J4,8*%
X176009300Y-88559640D03*
%TO.P,J4,9*%
%TO.N,unconnected-(J4-Pad9)*%
X176009300Y-90858340D03*
%TO.P,J4,10*%
%TO.N,GND*%
X176009300Y-93131640D03*
%TO.P,J4,11*%
%TO.N,unconnected-(J4-Pad11)*%
X177800600Y-85112860D03*
%TO.P,J4,12*%
%TO.N,unconnected-(J4-Pad12)*%
X177800600Y-87403940D03*
%TO.P,J4,13*%
%TO.N,Net-(J4-Pad13)*%
X177800600Y-89692480D03*
%TO.P,J4,14*%
%TO.N,Net-(J4-Pad14)*%
X177800600Y-91983560D03*
%TO.P,J4,15*%
%TO.N,unconnected-(J4-Pad15)*%
X177800600Y-94274640D03*
%TD*%
D17*
%TO.P,J6,1,Pin_1*%
%TO.N,GND*%
X174942500Y-111755000D03*
D18*
%TO.P,J6,2,Pin_2*%
%TO.N,+5V*%
X174942500Y-114295000D03*
%TD*%
D19*
%TO.P,U3,1*%
%TO.N,GND*%
X110872500Y-100330000D03*
%TO.P,U3,2*%
X110872500Y-101600000D03*
%TO.P,U3,3*%
%TO.N,unconnected-(U3-Pad3)*%
X110872500Y-102870000D03*
%TO.P,U3,4*%
%TO.N,GND*%
X110872500Y-104140000D03*
%TO.P,U3,5*%
%TO.N,VIDEO*%
X110872500Y-105410000D03*
%TO.P,U3,6*%
%TO.N,VIDEOX*%
X110872500Y-106680000D03*
%TO.P,U3,7,GND*%
%TO.N,GND*%
X110872500Y-107950000D03*
%TO.P,U3,8*%
%TO.N,HSYNCX*%
X115822500Y-107950000D03*
%TO.P,U3,9*%
%TO.N,HSYNC*%
X115822500Y-106680000D03*
%TO.P,U3,10*%
%TO.N,GND*%
X115822500Y-105410000D03*
%TO.P,U3,11*%
%TO.N,VSYNCX*%
X115822500Y-104140000D03*
%TO.P,U3,12*%
%TO.N,VSYNC*%
X115822500Y-102870000D03*
%TO.P,U3,13*%
%TO.N,GND*%
X115822500Y-101600000D03*
%TO.P,U3,14,VCC*%
%TO.N,+3V3*%
X115822500Y-100330000D03*
%TD*%
D20*
%TO.P,U5,1,GND*%
%TO.N,GND*%
X162610000Y-60267500D03*
%TO.P,U5,2,VO*%
%TO.N,+1V8*%
X162610000Y-62547500D03*
D21*
X168910000Y-62547500D03*
D20*
%TO.P,U5,3,VI*%
%TO.N,+3V3*%
X162610000Y-64827500D03*
%TD*%
D17*
%TO.P,J1,1,Pin_1*%
%TO.N,A0*%
X96525000Y-82545000D03*
D18*
%TO.P,J1,2,Pin_2*%
%TO.N,A1*%
X93985000Y-82545000D03*
%TO.P,J1,3,Pin_3*%
%TO.N,A2*%
X96525000Y-80005000D03*
%TO.P,J1,4,Pin_4*%
%TO.N,A3*%
X93985000Y-80005000D03*
%TO.P,J1,5,Pin_5*%
%TO.N,A4*%
X96525000Y-77465000D03*
%TO.P,J1,6,Pin_6*%
%TO.N,A5*%
X93985000Y-77465000D03*
%TO.P,J1,7,Pin_7*%
%TO.N,A6*%
X96525000Y-74925000D03*
%TO.P,J1,8,Pin_8*%
%TO.N,A7*%
X93985000Y-74925000D03*
%TO.P,J1,9,Pin_9*%
%TO.N,D0*%
X96525000Y-72385000D03*
%TO.P,J1,10,Pin_10*%
%TO.N,D1*%
X93985000Y-72385000D03*
%TO.P,J1,11,Pin_11*%
%TO.N,D2*%
X96525000Y-69845000D03*
%TO.P,J1,12,Pin_12*%
%TO.N,D3*%
X93985000Y-69845000D03*
%TO.P,J1,13,Pin_13*%
%TO.N,D4*%
X96525000Y-67305000D03*
%TO.P,J1,14,Pin_14*%
%TO.N,D5*%
X93985000Y-67305000D03*
%TO.P,J1,15,Pin_15*%
%TO.N,D6*%
X96525000Y-64765000D03*
%TO.P,J1,16,Pin_16*%
%TO.N,D7*%
X93985000Y-64765000D03*
%TO.P,J1,17,Pin_17*%
%TO.N,unconnected-(J1-Pad17)*%
X96525000Y-62225000D03*
%TO.P,J1,18,Pin_18*%
%TO.N,unconnected-(J1-Pad18)*%
X93985000Y-62225000D03*
%TO.P,J1,19,Pin_19*%
%TO.N,RST_N*%
X96525000Y-59685000D03*
%TO.P,J1,20,Pin_20*%
%TO.N,GND*%
X93985000Y-59685000D03*
%TD*%
D10*
%TO.P,C1,1*%
%TO.N,+3V3*%
X105007500Y-55880000D03*
%TO.P,C1,2*%
%TO.N,GND*%
X107082500Y-55880000D03*
%TD*%
D14*
%TO.P,R7,1*%
%TO.N,PS2_DTA*%
X112347500Y-90487500D03*
%TO.P,R7,2*%
%TO.N,+3V3*%
X114347500Y-90487500D03*
%TD*%
%TO.P,R3,1*%
%TO.N,VGA_BLUE*%
X161607500Y-90805000D03*
%TO.P,R3,2*%
%TO.N,Net-(J4-Pad3)*%
X163607500Y-90805000D03*
%TD*%
D22*
%TO.P,J3,0*%
%TO.N,GND*%
X95135000Y-94917500D03*
D23*
X94335000Y-101917500D03*
D22*
X95135000Y-108917500D03*
D24*
%TO.P,J3,1*%
%TO.N,PS2_DTA*%
X98135000Y-103217500D03*
%TO.P,J3,2*%
%TO.N,unconnected-(J3-Pad2)*%
X98135000Y-100617500D03*
%TO.P,J3,3*%
%TO.N,GND*%
X98135000Y-105317500D03*
%TO.P,J3,4*%
%TO.N,+5V*%
X98135000Y-98517500D03*
%TO.P,J3,5*%
%TO.N,PS2_CLK*%
X100635000Y-105317500D03*
%TO.P,J3,6*%
%TO.N,unconnected-(J3-Pad6)*%
X100635000Y-98517500D03*
D25*
%TO.P,J3,M1*%
%TO.N,N/C*%
X93035000Y-104417500D03*
%TO.P,J3,M2*%
X93035000Y-99417500D03*
%TO.P,J3,M3*%
X100635000Y-106917500D03*
%TO.P,J3,M4*%
X100635000Y-96917500D03*
%TD*%
D26*
%TO.P,C8,1*%
%TO.N,+5V*%
X168275000Y-114592500D03*
%TO.P,C8,2*%
%TO.N,GND*%
X168275000Y-111467500D03*
%TD*%
D27*
%TO.P,RP1,1,Pin_1*%
%TO.N,+3V3*%
X120624600Y-87604600D03*
D28*
%TO.P,RP1,2,Pin_2*%
%TO.N,A0*%
X120624600Y-85064600D03*
%TO.P,RP1,3,Pin_3*%
%TO.N,A1*%
X120624600Y-82524600D03*
%TO.P,RP1,4,Pin_4*%
%TO.N,A2*%
X120624600Y-79984600D03*
%TO.P,RP1,5,Pin_5*%
%TO.N,A3*%
X120624600Y-77444600D03*
%TO.P,RP1,6,Pin_6*%
%TO.N,A4*%
X120624600Y-74904600D03*
%TO.P,RP1,7,Pin_7*%
%TO.N,A5*%
X120624600Y-72364600D03*
%TO.P,RP1,8,Pin_8*%
%TO.N,A6*%
X120624600Y-69824600D03*
%TO.P,RP1,9,Pin_9*%
%TO.N,A7*%
X120624600Y-67284600D03*
%TD*%
D12*
%TO.P,H1,1*%
%TO.N,N/C*%
X97500000Y-48895000D03*
X96840990Y-50485990D03*
X95250000Y-46645000D03*
X93659010Y-50485990D03*
X93000000Y-48895000D03*
X93659010Y-47304010D03*
X96840990Y-47304010D03*
X95250000Y-51145000D03*
D13*
X95250000Y-48895000D03*
%TD*%
D14*
%TO.P,R2,1*%
%TO.N,VGA_GREEN*%
X161607500Y-87630000D03*
%TO.P,R2,2*%
%TO.N,Net-(J4-Pad2)*%
X163607500Y-87630000D03*
%TD*%
D11*
%TO.P,C6,1*%
%TO.N,+3V3*%
X162585000Y-69215000D03*
%TO.P,C6,2*%
%TO.N,GND*%
X165710000Y-69215000D03*
%TD*%
D17*
%TO.P,J2,1,Pin_1*%
%TO.N,GND*%
X105410000Y-119767500D03*
D18*
%TO.P,J2,2,Pin_2*%
%TO.N,VIDEO*%
X107950000Y-119767500D03*
%TO.P,J2,3,Pin_3*%
%TO.N,GND*%
X110490000Y-119767500D03*
%TO.P,J2,4,Pin_4*%
%TO.N,VSYNC*%
X113030000Y-119767500D03*
%TO.P,J2,5,Pin_5*%
%TO.N,GND*%
X115570000Y-119767500D03*
%TO.P,J2,6,Pin_6*%
%TO.N,HSYNC*%
X118110000Y-119767500D03*
%TD*%
D12*
%TO.P,H2,1*%
%TO.N,N/C*%
X96840990Y-126368490D03*
D13*
X95250000Y-124777500D03*
D12*
X95250000Y-127027500D03*
X96840990Y-123186510D03*
X95250000Y-122527500D03*
X97500000Y-124777500D03*
X93000000Y-124777500D03*
X93659010Y-126368490D03*
X93659010Y-123186510D03*
%TD*%
D29*
%TO.P,R9,1*%
%TO.N,VSYNC*%
X112395000Y-114935000D03*
%TO.P,R9,2*%
%TO.N,GND*%
X110395000Y-114935000D03*
%TD*%
D14*
%TO.P,R1,1*%
%TO.N,VGA_RED*%
X161607500Y-84455000D03*
%TO.P,R1,2*%
%TO.N,Net-(J4-Pad1)*%
X163607500Y-84455000D03*
%TD*%
D12*
%TO.P,H4,1*%
%TO.N,N/C*%
X173034010Y-50485990D03*
X176215990Y-47304010D03*
X173034010Y-47304010D03*
X174625000Y-46645000D03*
D13*
X174625000Y-48895000D03*
D12*
X172375000Y-48895000D03*
X174625000Y-51145000D03*
X176875000Y-48895000D03*
X176215990Y-50485990D03*
%TD*%
D14*
%TO.P,R4,1*%
%TO.N,VGA_VSYNC*%
X161607500Y-95885000D03*
%TO.P,R4,2*%
%TO.N,Net-(J4-Pad14)*%
X163607500Y-95885000D03*
%TD*%
D30*
%TO.P,Q1,1,G*%
%TO.N,RST*%
X106982500Y-50797500D03*
%TO.P,Q1,2,S*%
%TO.N,GND*%
X106982500Y-48897500D03*
%TO.P,Q1,3,D*%
%TO.N,RST_N*%
X105107500Y-49847500D03*
%TD*%
D10*
%TO.P,C3,1*%
%TO.N,GND*%
X112310000Y-97155000D03*
%TO.P,C3,2*%
%TO.N,+3V3*%
X114385000Y-97155000D03*
%TD*%
D17*
%TO.P,J5,1,Pin_1*%
%TO.N,GND*%
X163517500Y-77152500D03*
D18*
%TO.P,J5,2,Pin_2*%
%TO.N,Net-(J5-Pad2)*%
X160977500Y-77152500D03*
%TD*%
D14*
%TO.P,R6,1*%
%TO.N,PS2_CLK*%
X112300000Y-93662500D03*
%TO.P,R6,2*%
%TO.N,+3V3*%
X114300000Y-93662500D03*
%TD*%
D31*
%TO.P,U2,1,VCCA*%
%TO.N,+3V3*%
X105722500Y-60560000D03*
%TO.P,U2,2,DIR*%
%TO.N,GND*%
X105722500Y-61210000D03*
%TO.P,U2,3,A1*%
%TO.N,D7*%
X105722500Y-61860000D03*
%TO.P,U2,4,A2*%
%TO.N,D6*%
X105722500Y-62510000D03*
%TO.P,U2,5,A3*%
%TO.N,D5*%
X105722500Y-63160000D03*
%TO.P,U2,6,A4*%
%TO.N,D4*%
X105722500Y-63810000D03*
%TO.P,U2,7,A5*%
%TO.N,D3*%
X105722500Y-64460000D03*
%TO.P,U2,8,A6*%
%TO.N,D2*%
X105722500Y-65110000D03*
%TO.P,U2,9,A7*%
%TO.N,D1*%
X105722500Y-65760000D03*
%TO.P,U2,10,A8*%
%TO.N,D0*%
X105722500Y-66410000D03*
%TO.P,U2,11,GND*%
%TO.N,GND*%
X105722500Y-67060000D03*
%TO.P,U2,12,GND*%
X105722500Y-67710000D03*
%TO.P,U2,13,GND*%
X111447500Y-67710000D03*
%TO.P,U2,14,B8*%
%TO.N,DD0*%
X111447500Y-67060000D03*
%TO.P,U2,15,B7*%
%TO.N,DD1*%
X111447500Y-66410000D03*
%TO.P,U2,16,B6*%
%TO.N,DD2*%
X111447500Y-65760000D03*
%TO.P,U2,17,B5*%
%TO.N,DD3*%
X111447500Y-65110000D03*
%TO.P,U2,18,B4*%
%TO.N,DD4*%
X111447500Y-64460000D03*
%TO.P,U2,19,B3*%
%TO.N,DD5*%
X111447500Y-63810000D03*
%TO.P,U2,20,B2*%
%TO.N,DD6*%
X111447500Y-63160000D03*
%TO.P,U2,21,B1*%
%TO.N,DD7*%
X111447500Y-62510000D03*
%TO.P,U2,22,OEn*%
%TO.N,DEN_N*%
X111447500Y-61860000D03*
%TO.P,U2,23,VCCB*%
%TO.N,+1V8*%
X111447500Y-61210000D03*
%TO.P,U2,24,VCCB*%
X111447500Y-60560000D03*
%TD*%
D29*
%TO.P,R8,1*%
%TO.N,HSYNC*%
X117522500Y-114935000D03*
%TO.P,R8,2*%
%TO.N,GND*%
X115522500Y-114935000D03*
%TD*%
%TO.P,R10,1*%
%TO.N,VIDEO*%
X107315000Y-114935000D03*
%TO.P,R10,2*%
%TO.N,GND*%
X105315000Y-114935000D03*
%TD*%
D32*
%TO.P,U1,1,Pad_38*%
%TO.N,unconnected-(U1-Pad1)*%
X127000000Y-57150000D03*
%TO.P,U1,2,Pad_37*%
%TO.N,unconnected-(U1-Pad2)*%
X127000000Y-59690000D03*
%TO.P,U1,3,Pad_36*%
%TO.N,unconnected-(U1-Pad3)*%
X127000000Y-62230000D03*
%TO.P,U1,4,Pad_39*%
%TO.N,unconnected-(U1-Pad4)*%
X127000000Y-64770000D03*
%TO.P,U1,5,Pad_25*%
%TO.N,A7*%
X127000000Y-67310000D03*
%TO.P,U1,6,Pad_26*%
%TO.N,A6*%
X127000000Y-69850000D03*
%TO.P,U1,7,Pad_27*%
%TO.N,A5*%
X127000000Y-72390000D03*
%TO.P,U1,8,Pad_28*%
%TO.N,A4*%
X127000000Y-74930000D03*
%TO.P,U1,9,Pad_29*%
%TO.N,A3*%
X127000000Y-77470000D03*
%TO.P,U1,10,Pad_30*%
%TO.N,A2*%
X127000000Y-80010000D03*
%TO.P,U1,11,Pad_33*%
%TO.N,A1*%
X127000000Y-82550000D03*
%TO.P,U1,12,Pad_34*%
%TO.N,A0*%
X127000000Y-85090000D03*
%TO.P,U1,13,Pad_40*%
%TO.N,unconnected-(U1-Pad13)*%
X127000000Y-87630000D03*
%TO.P,U1,14,Pad_35*%
%TO.N,unconnected-(U1-Pad14)*%
X127000000Y-90170000D03*
%TO.P,U1,15,Pad_41*%
%TO.N,unconnected-(U1-Pad15)*%
X127000000Y-92710000D03*
%TO.P,U1,16,Pad_42*%
%TO.N,unconnected-(U1-Pad16)*%
X127000000Y-95250000D03*
%TO.P,U1,17,Pad_51*%
%TO.N,PS2_DTA*%
X127000000Y-97790000D03*
%TO.P,U1,18,Pad_53*%
%TO.N,PS2_CLK*%
X127000000Y-100330000D03*
%TO.P,U1,19,Pad_54*%
%TO.N,RST_NX*%
X127000000Y-102870000D03*
%TO.P,U1,20,Pad_55*%
%TO.N,VSYNCX*%
X127000000Y-105410000D03*
%TO.P,U1,21,Pad_56*%
%TO.N,HSYNCX*%
X127000000Y-107950000D03*
%TO.P,U1,22,Pad_57*%
%TO.N,VIDEOX*%
X127000000Y-110490000D03*
%TO.P,U1,23,Pad_68*%
%TO.N,VGA_VSYNC*%
X127000000Y-113030000D03*
%TO.P,U1,24,Pad_69*%
%TO.N,VGA_HSYNC*%
X127000000Y-115570000D03*
%TO.P,U1,25,3V3*%
%TO.N,+3V3*%
X149900000Y-115570000D03*
%TO.P,U1,26,GND*%
%TO.N,GND*%
X149900000Y-113030000D03*
%TO.P,U1,27,Pad_32*%
%TO.N,unconnected-(U1-Pad27)*%
X149900000Y-110490000D03*
%TO.P,U1,28,Pad_31*%
%TO.N,HSYNC_O*%
X149900000Y-107950000D03*
%TO.P,U1,29,Pad_49*%
%TO.N,VSYNC_O*%
X149900000Y-105410000D03*
%TO.P,U1,30,Pad_48*%
%TO.N,VIDEO_O*%
X149900000Y-102870000D03*
%TO.P,U1,31,5V*%
%TO.N,+5V*%
X149900000Y-100330000D03*
%TO.P,U1,32,Pad_70*%
%TO.N,unconnected-(U1-Pad32)*%
X149900000Y-97790000D03*
%TO.P,U1,33,Pad_71*%
%TO.N,VGA_BLUE*%
X149900000Y-95250000D03*
%TO.P,U1,34,Pad_72*%
%TO.N,unconnected-(U1-Pad34)*%
X149900000Y-92710000D03*
%TO.P,U1,35,Pad_73*%
%TO.N,VGA_GREEN*%
X149900000Y-90170000D03*
%TO.P,U1,36,Pad_74*%
%TO.N,unconnected-(U1-Pad36)*%
X149900000Y-87630000D03*
%TO.P,U1,37,Pad_75*%
%TO.N,VGA_RED*%
X149900000Y-85090000D03*
%TO.P,U1,38,Pad_76*%
%TO.N,Net-(J5-Pad2)*%
X149900000Y-82550000D03*
%TO.P,U1,39,Pad_77*%
%TO.N,DEN_N*%
X149900000Y-80010000D03*
%TO.P,U1,40,Pad_79*%
%TO.N,DD0*%
X149900000Y-77470000D03*
%TO.P,U1,41,Pad_80*%
%TO.N,DD1*%
X149900000Y-74930000D03*
%TO.P,U1,42,Pad_81*%
%TO.N,DD2*%
X149900000Y-72390000D03*
%TO.P,U1,43,Pad_82*%
%TO.N,DD3*%
X149900000Y-69850000D03*
%TO.P,U1,44,Pad_83*%
%TO.N,DD4*%
X149900000Y-67310000D03*
%TO.P,U1,45,Pad_84*%
%TO.N,DD5*%
X149900000Y-64770000D03*
%TO.P,U1,46,Pad_85*%
%TO.N,DD6*%
X149900000Y-62230000D03*
%TO.P,U1,47,Pad_86*%
%TO.N,DD7*%
X149900000Y-59690000D03*
%TO.P,U1,48,Pad_63*%
%TO.N,RST*%
X149900000Y-57150000D03*
%TD*%
D33*
%TO.N,+5V*%
X143192500Y-97790000D03*
X145732500Y-100330000D03*
%TO.N,GND*%
X108902500Y-67627500D03*
X162560000Y-58102500D03*
X167640000Y-55880000D03*
X108902500Y-107950000D03*
X108585000Y-55880000D03*
X108902500Y-48895000D03*
X167640000Y-69215000D03*
X118110000Y-105410000D03*
X108902500Y-100330000D03*
%TO.N,+3V3*%
X115887500Y-90487500D03*
X115887500Y-85407500D03*
X116840000Y-49212500D03*
X109855000Y-58420000D03*
X115887500Y-49212500D03*
X115887500Y-93662500D03*
X153987500Y-50165000D03*
X153987500Y-49212500D03*
X153987500Y-64770000D03*
X115822500Y-97155000D03*
%TO.N,Net-(J4-Pad14)*%
X175942500Y-96520000D03*
%TO.N,RST*%
X110807500Y-50800000D03*
X113347500Y-50800000D03*
%TO.N,VIDEOX*%
X115252500Y-110490000D03*
X112395000Y-110490000D03*
%TD*%
D34*
%TO.N,+5V*%
X106680000Y-88265000D02*
X115887500Y-88265000D01*
D35*
X98135000Y-96865000D02*
X98107500Y-96837500D01*
D34*
X98135008Y-98517507D02*
X98135008Y-96865008D01*
X98107500Y-96837500D02*
X106680000Y-88265000D01*
D35*
%TO.N,PS2_DTA*%
X99665000Y-103217500D02*
X110807500Y-92075000D01*
X98135000Y-103217500D02*
X99665000Y-103217500D01*
X110807500Y-92075000D02*
X112395000Y-92075000D01*
%TO.N,PS2_CLK*%
X105092500Y-100965000D02*
X110807500Y-95250000D01*
X100635000Y-105317500D02*
X104987500Y-100965000D01*
X104987500Y-100965000D02*
X105092500Y-100965000D01*
D34*
%TO.N,+5V*%
X141922500Y-96520000D02*
X128270000Y-96520000D01*
X143192500Y-97790000D02*
X141922500Y-96520000D01*
X152400000Y-100330000D02*
X166662500Y-114592500D01*
X145732500Y-100330000D02*
X152400000Y-100330000D01*
X174942502Y-114294996D02*
X168572504Y-114294996D01*
X124142500Y-96520000D02*
X125412500Y-96520000D01*
D35*
X128270000Y-96520000D02*
X125412500Y-96520000D01*
D34*
X115887500Y-88265000D02*
X124142500Y-96520000D01*
X166662500Y-114592500D02*
X168275000Y-114592500D01*
%TO.N,GND*%
X162610013Y-60267494D02*
X162610013Y-58152513D01*
D35*
X105722496Y-67709999D02*
X105722496Y-67059988D01*
X105410000Y-115030000D02*
X105410000Y-119767500D01*
D34*
X165710006Y-69215000D02*
X167640000Y-69215000D01*
D35*
X106982500Y-48897500D02*
X108900000Y-48897500D01*
X115570000Y-114982500D02*
X115570000Y-119767500D01*
X107397499Y-67709999D02*
X105722496Y-67709999D01*
X108900000Y-48897500D02*
X108902500Y-48895000D01*
X110872500Y-101600000D02*
X112395000Y-101600000D01*
X111447504Y-67709999D02*
X107397499Y-67709999D01*
X105722496Y-61210012D02*
X107397499Y-61210012D01*
X110872500Y-104140000D02*
X112395000Y-104140000D01*
X110490000Y-115030000D02*
X110490000Y-119767500D01*
D34*
X174942502Y-111754996D02*
X168562496Y-111754996D01*
D35*
X112395000Y-98742500D02*
X112395000Y-97240000D01*
X108902500Y-100330000D02*
X110872500Y-100330000D01*
X107397499Y-61210012D02*
X107397499Y-67709999D01*
X110872500Y-100330000D02*
X110872500Y-101600000D01*
X115822500Y-105410000D02*
X118110000Y-105410000D01*
X162610000Y-58152500D02*
X162560000Y-58102500D01*
X110807500Y-98742500D02*
X112395000Y-98742500D01*
X112395000Y-104140000D02*
X112395000Y-101600000D01*
X110807500Y-100265000D02*
X110807500Y-98742500D01*
X108902500Y-107950000D02*
X110872500Y-107950000D01*
X112395000Y-101600000D02*
X115822500Y-101600000D01*
D34*
X165710006Y-55880000D02*
X167640000Y-55880000D01*
D35*
X107082488Y-55880000D02*
X110087512Y-55880000D01*
D34*
%TO.N,+3V3*%
X153987500Y-49212500D02*
X153987500Y-50165000D01*
X153987500Y-49212500D02*
X115887500Y-49212500D01*
X120624600Y-87604600D02*
X118719600Y-87604600D01*
X162610013Y-64827506D02*
X154045006Y-64827506D01*
D35*
X105727500Y-58420000D02*
X109855000Y-58420000D01*
X105722496Y-60560001D02*
X105722496Y-58425004D01*
X115822500Y-100330000D02*
X115822500Y-97155000D01*
D34*
X116522500Y-85407500D02*
X115887500Y-85407500D01*
X162610013Y-69190006D02*
X162610013Y-64827506D01*
D35*
X105007512Y-58335012D02*
X105007512Y-55880000D01*
D36*
X105092500Y-58420000D02*
X105007500Y-58335000D01*
D35*
X114300000Y-93662500D02*
X115887500Y-93662500D01*
X154045000Y-64827500D02*
X153987500Y-64770000D01*
X114385000Y-97155000D02*
X115822500Y-97155000D01*
X105727500Y-58420000D02*
X105092500Y-58420000D01*
D34*
X118719600Y-87604600D02*
X116522500Y-85407500D01*
D36*
X105722500Y-58425000D02*
X105727500Y-58420000D01*
D35*
X114347500Y-90487500D02*
X115887500Y-90487500D01*
%TO.N,D4*%
X101925000Y-63810000D02*
X105722500Y-63810000D01*
X98430000Y-67305000D02*
X101925000Y-63810000D01*
X96525000Y-67305000D02*
X98430000Y-67305000D01*
%TO.N,D7*%
X93985000Y-64765000D02*
X95323089Y-63426911D01*
X100065000Y-61860000D02*
X105722500Y-61860000D01*
X98425000Y-63500000D02*
X100065000Y-61860000D01*
X95323089Y-63426911D02*
X98351911Y-63426911D01*
X98351911Y-63426911D02*
X98425000Y-63500000D01*
%TO.N,D1*%
X93985000Y-72385000D02*
X95250000Y-71120000D01*
X98425000Y-71120000D02*
X103785000Y-65760000D01*
X95250000Y-71120000D02*
X98425000Y-71120000D01*
X103785000Y-65760000D02*
X105722500Y-65760000D01*
%TO.N,D6*%
X98420000Y-64765000D02*
X98425000Y-64770000D01*
X96525000Y-64765000D02*
X98420000Y-64765000D01*
X98425000Y-64770000D02*
X100685000Y-62510000D01*
X100685000Y-62510000D02*
X105722500Y-62510000D01*
%TO.N,A0*%
X118770400Y-85064600D02*
X120624600Y-85064600D01*
X120624600Y-85064600D02*
X126974600Y-85064600D01*
X96525000Y-82545000D02*
X116200000Y-82545000D01*
X116200000Y-82545000D02*
X118745000Y-85090000D01*
X118745000Y-85090000D02*
X118770400Y-85064600D01*
%TO.N,D3*%
X98361911Y-68643089D02*
X102552500Y-64452500D01*
X93985000Y-69845000D02*
X95186911Y-68643089D01*
X102552500Y-64452500D02*
X105715000Y-64452500D01*
X95186911Y-68643089D02*
X98361911Y-68643089D01*
%TO.N,A1*%
X120624600Y-82524600D02*
X126974600Y-82524600D01*
X95250000Y-81206911D02*
X117401911Y-81206911D01*
X93985000Y-82545000D02*
X95250000Y-81280000D01*
X117401911Y-81206911D02*
X118745000Y-82550000D01*
X118745000Y-82550000D02*
X118770400Y-82524600D01*
X118770400Y-82524600D02*
X120624600Y-82524600D01*
%TO.N,D5*%
X95250000Y-66040000D02*
X98425000Y-66040000D01*
X98425000Y-66040000D02*
X101305000Y-63160000D01*
X101305000Y-63160000D02*
X105722500Y-63160000D01*
X93985000Y-67305000D02*
X95250000Y-66040000D01*
%TO.N,D0*%
X96525000Y-72385000D02*
X98430000Y-72385000D01*
X104405000Y-66410000D02*
X105722500Y-66410000D01*
X98430000Y-72385000D02*
X104405000Y-66410000D01*
%TO.N,A4*%
X118770400Y-74904600D02*
X120624600Y-74904600D01*
X120624600Y-74904600D02*
X126974600Y-74904600D01*
X116210000Y-77465000D02*
X118770400Y-74904600D01*
X96525000Y-77465000D02*
X116210000Y-77465000D01*
%TO.N,D2*%
X103187500Y-65087500D02*
X105700000Y-65087500D01*
X96525000Y-69845000D02*
X98420000Y-69845000D01*
X98420000Y-69845000D02*
X98425000Y-69850000D01*
X98425000Y-69850000D02*
X103187500Y-65087500D01*
%TO.N,A3*%
X95250000Y-78740000D02*
X117475000Y-78740000D01*
X117475000Y-78740000D02*
X118770400Y-77444600D01*
X93985000Y-80005000D02*
X95250000Y-78740000D01*
X118770400Y-77444600D02*
X120624600Y-77444600D01*
X120624600Y-77444600D02*
X126974600Y-77444600D01*
%TO.N,A5*%
X118770400Y-72364600D02*
X120624600Y-72364600D01*
X114935000Y-76200000D02*
X118770400Y-72364600D01*
X120624600Y-72364600D02*
X126974600Y-72364600D01*
X93985000Y-77465000D02*
X95250000Y-76200000D01*
X95250000Y-76200000D02*
X114935000Y-76200000D01*
%TO.N,A7*%
X112395000Y-73660000D02*
X118770400Y-67284600D01*
X93985000Y-74925000D02*
X95250000Y-73660000D01*
X120624600Y-67284600D02*
X126974600Y-67284600D01*
X95250000Y-73660000D02*
X112395000Y-73660000D01*
X118770400Y-67284600D02*
X120624600Y-67284600D01*
%TO.N,A2*%
X120624600Y-79984600D02*
X126974600Y-79984600D01*
X96525000Y-80005000D02*
X120604200Y-80005000D01*
%TO.N,+1V8*%
X111442500Y-58420000D02*
X112077500Y-58420000D01*
X111447500Y-58425000D02*
X111442500Y-58420000D01*
X111447500Y-61210000D02*
X111447500Y-60560000D01*
X112162500Y-58335000D02*
X112162500Y-55880000D01*
X112077500Y-58420000D02*
X112162500Y-58335000D01*
X111447500Y-60560000D02*
X111447500Y-58425000D01*
D34*
X160020000Y-62547500D02*
X160020000Y-55880000D01*
X160020000Y-55880000D02*
X160020000Y-47625000D01*
X112077500Y-47625000D02*
X112077500Y-55795012D01*
X162610013Y-62547500D02*
X160020000Y-62547500D01*
X162584994Y-55880000D02*
X160020000Y-55880000D01*
X168910000Y-62547500D02*
X162610013Y-62547500D01*
X160020000Y-47625000D02*
X112077500Y-47625000D01*
D35*
%TO.N,Net-(J5-Pad2)*%
X149900000Y-82550000D02*
X152082500Y-82550000D01*
X157480000Y-77152500D02*
X160977500Y-77152500D01*
X152082500Y-82550000D02*
X157480000Y-77152500D01*
%TO.N,DD3*%
X141605000Y-69850000D02*
X149900000Y-69850000D01*
X115865000Y-65110000D02*
X122555000Y-58420000D01*
X130175000Y-58420000D02*
X141605000Y-69850000D01*
X111447500Y-65110000D02*
X115865000Y-65110000D01*
X122555000Y-58420000D02*
X130175000Y-58420000D01*
%TO.N,DD4*%
X123825000Y-55880000D02*
X129540000Y-55880000D01*
X111447500Y-64460000D02*
X115245000Y-64460000D01*
X115245000Y-64460000D02*
X123825000Y-55880000D01*
X140970000Y-67310000D02*
X149900000Y-67310000D01*
X129540000Y-55880000D02*
X140970000Y-67310000D01*
%TO.N,DD5*%
X123507500Y-54927500D02*
X130492500Y-54927500D01*
X114625000Y-63810000D02*
X123507500Y-54927500D01*
X140335000Y-64770000D02*
X149900000Y-64770000D01*
X111447500Y-63810000D02*
X114625000Y-63810000D01*
X130492500Y-54927500D02*
X140335000Y-64770000D01*
%TO.N,DD6*%
X123190000Y-53975000D02*
X131445000Y-53975000D01*
X111447500Y-63160000D02*
X114005000Y-63160000D01*
X131445000Y-53975000D02*
X139700000Y-62230000D01*
X114005000Y-63160000D02*
X123190000Y-53975000D01*
X139700000Y-62230000D02*
X149900000Y-62230000D01*
%TO.N,DD7*%
X122872500Y-53022500D02*
X132397500Y-53022500D01*
X132397500Y-53022500D02*
X139065000Y-59690000D01*
X139065000Y-59690000D02*
X149900000Y-59690000D01*
X111447500Y-62510000D02*
X113385000Y-62510000D01*
X113385000Y-62510000D02*
X122872500Y-53022500D01*
%TO.N,DD2*%
X111447500Y-65760000D02*
X116485000Y-65760000D01*
X116485000Y-65760000D02*
X121285000Y-60960000D01*
X142240000Y-72390000D02*
X149900000Y-72390000D01*
X130810000Y-60960000D02*
X142240000Y-72390000D01*
X121285000Y-60960000D02*
X130810000Y-60960000D01*
%TO.N,DD0*%
X117725000Y-67060000D02*
X118745000Y-66040000D01*
X111447500Y-67060000D02*
X117725000Y-67060000D01*
X118745000Y-66040000D02*
X132080000Y-66040000D01*
X132080000Y-66040000D02*
X143510000Y-77470000D01*
X143510000Y-77470000D02*
X149900000Y-77470000D01*
%TO.N,DD1*%
X131445000Y-63500000D02*
X142875000Y-74930000D01*
X111447500Y-66410000D02*
X117105000Y-66410000D01*
X120015000Y-63500000D02*
X131445000Y-63500000D01*
X142875000Y-74930000D02*
X149900000Y-74930000D01*
X117105000Y-66410000D02*
X120015000Y-63500000D01*
%TO.N,Net-(J4-Pad3)*%
X163607500Y-90805000D02*
X173288800Y-90805000D01*
X173288800Y-90805000D02*
X174292100Y-89801700D01*
%TO.N,Net-(J4-Pad2)*%
X163607500Y-87630000D02*
X174672500Y-87630000D01*
%TO.N,Net-(J4-Pad1)*%
X163607500Y-84455000D02*
X173522480Y-84455000D01*
X173522480Y-84455000D02*
X174292100Y-85224620D01*
%TO.N,Net-(J4-Pad13)*%
X171497500Y-98425000D02*
X175942500Y-98425000D01*
X179117500Y-90805000D02*
X178116740Y-89804240D01*
X179117500Y-95250000D02*
X179117500Y-90805000D01*
X170862500Y-99060000D02*
X171497500Y-98425000D01*
X175942500Y-98425000D02*
X179117500Y-95250000D01*
X163607500Y-99060000D02*
X170862500Y-99060000D01*
%TO.N,Net-(J4-Pad14)*%
X164242500Y-96520000D02*
X175942500Y-96520000D01*
X163607500Y-95885000D02*
X164242500Y-96520000D01*
%TO.N,VGA_RED*%
X159385000Y-84455000D02*
X161607500Y-84455000D01*
X149900000Y-85090000D02*
X158750000Y-85090000D01*
X158750000Y-85090000D02*
X159385000Y-84455000D01*
%TO.N,VGA_GREEN*%
X149900000Y-90170000D02*
X157162500Y-90170000D01*
X157162500Y-90170000D02*
X159702500Y-87630000D01*
X159702500Y-87630000D02*
X161607500Y-87630000D01*
%TO.N,VGA_BLUE*%
X149900000Y-95250000D02*
X155257500Y-95250000D01*
X159702500Y-90805000D02*
X161607500Y-90805000D01*
X155257500Y-95250000D02*
X159702500Y-90805000D01*
%TO.N,VGA_HSYNC*%
X128587500Y-115570000D02*
X145097500Y-99060000D01*
X145097500Y-99060000D02*
X161607500Y-99060000D01*
X127000000Y-115570000D02*
X128587500Y-115570000D01*
%TO.N,VGA_VSYNC*%
X156527500Y-95885000D02*
X161607500Y-95885000D01*
X129857500Y-113030000D02*
X146367500Y-96520000D01*
X127000000Y-113030000D02*
X129857500Y-113030000D01*
X155892500Y-96520000D02*
X156527500Y-95885000D01*
X146367500Y-96520000D02*
X155892500Y-96520000D01*
%TO.N,RST*%
X133985000Y-50800000D02*
X140335000Y-57150000D01*
X110805000Y-50797500D02*
X110807500Y-50800000D01*
X140335000Y-57150000D02*
X149900000Y-57150000D01*
X113347500Y-50800000D02*
X133985000Y-50800000D01*
X106982500Y-50797500D02*
X110805000Y-50797500D01*
%TO.N,VSYNC*%
X112395000Y-116522500D02*
X113030000Y-117157500D01*
X113030000Y-117157500D02*
X113030000Y-119767500D01*
X113347500Y-103505000D02*
X113982500Y-102870000D01*
X112395000Y-112077500D02*
X112395000Y-114935000D01*
X113347500Y-111125000D02*
X112395000Y-112077500D01*
X113982500Y-102870000D02*
X115822500Y-102870000D01*
X112395000Y-114935000D02*
X112395000Y-116522500D01*
X113347500Y-111125000D02*
X113347500Y-103505000D01*
%TO.N,VIDEO*%
X107315000Y-114935000D02*
X107315000Y-116840000D01*
X108902500Y-105410000D02*
X110872500Y-105410000D01*
X107950000Y-117475000D02*
X107950000Y-119767500D01*
X107315000Y-116840000D02*
X107950000Y-117475000D01*
X107315000Y-114935000D02*
X107315000Y-106997500D01*
X107315000Y-106997500D02*
X108902500Y-105410000D01*
%TO.N,HSYNC*%
X114300000Y-111125000D02*
X117522500Y-114347500D01*
X117522500Y-114935000D02*
X117522500Y-116475000D01*
X117475000Y-116522500D02*
X118110000Y-117157500D01*
X117522500Y-114347500D02*
X117522500Y-114935000D01*
X114300000Y-111125000D02*
X114300000Y-106680000D01*
X114300000Y-106680000D02*
X115822500Y-106680000D01*
X117522500Y-116475000D02*
X117475000Y-116522500D01*
X118110000Y-117157500D02*
X118110000Y-119767500D01*
%TO.N,HSYNCX*%
X115822500Y-107950000D02*
X127000000Y-107950000D01*
%TO.N,VIDEOX*%
X115252500Y-110490000D02*
X127000000Y-110490000D01*
X112395000Y-110490000D02*
X112395000Y-106680000D01*
X112395000Y-106680000D02*
X111287322Y-106680000D01*
%TO.N,VSYNCX*%
X120967500Y-105410000D02*
X127000000Y-105410000D01*
X119697500Y-104140000D02*
X120967500Y-105410000D01*
X115822500Y-104140000D02*
X119697500Y-104140000D01*
%TO.N,A6*%
X113670000Y-74925000D02*
X118770400Y-69824600D01*
X120624600Y-69824600D02*
X126974600Y-69824600D01*
X96525000Y-74925000D02*
X113670000Y-74925000D01*
X118770400Y-69824600D02*
X120624600Y-69824600D01*
%TO.N,PS2_CLK*%
X110807500Y-95250000D02*
X112395000Y-95250000D01*
X123190000Y-100330000D02*
X127000000Y-100330000D01*
X118110000Y-95250000D02*
X123190000Y-100330000D01*
X112300000Y-93662500D02*
X112300000Y-95155000D01*
X112395000Y-95250000D02*
X118110000Y-95250000D01*
X112300000Y-95155000D02*
X112395000Y-95250000D01*
%TO.N,PS2_DTA*%
X112347500Y-92027500D02*
X112395000Y-92075000D01*
X112395000Y-92075000D02*
X117157500Y-92075000D01*
X112347500Y-90487500D02*
X112347500Y-92027500D01*
X117157500Y-92075000D02*
X122872500Y-97790000D01*
X122872500Y-97790000D02*
X127000000Y-97790000D01*
%TO.N,DEN_N*%
X139700000Y-58420000D02*
X133350000Y-52070000D01*
X122555000Y-52070000D02*
X112765000Y-61860000D01*
X133350000Y-52070000D02*
X122555000Y-52070000D01*
X151447500Y-58420000D02*
X139700000Y-58420000D01*
X112765000Y-61860000D02*
X111447500Y-61860000D01*
X152400000Y-59372500D02*
X151447500Y-58420000D01*
X152400000Y-79375000D02*
X152400000Y-59372500D01*
X149900000Y-80010000D02*
X151765000Y-80010000D01*
X151765000Y-80010000D02*
X152400000Y-79375000D01*
%TO.N,RST_N*%
X103187500Y-54927500D02*
X103187500Y-50482500D01*
X98102500Y-59685000D02*
X98107500Y-59690000D01*
X98425000Y-59690000D02*
X103187500Y-54927500D01*
X98107500Y-59690000D02*
X98425000Y-59690000D01*
X103187500Y-50482500D02*
X103822500Y-49847500D01*
X96525000Y-59685000D02*
X98102500Y-59685000D01*
X103822500Y-49847500D02*
X105107500Y-49847500D01*
%TD*%
M02*
